<svg width="128" height="128" viewBox="0 0 128 128" fill="none" xmlns="http://www.w3.org/2000/svg">
<path d="M57.0074 65.1098C62.9469 65.1098 67.7619 60.2948 67.7619 54.3552C67.7619 48.4156 62.9469 43.6006 57.0074 43.6006C51.0678 43.6006 46.2528 48.4156 46.2528 54.3552C46.2528 60.2948 51.0678 65.1098 57.0074 65.1098Z" fill="#75DDF9"/>
<path d="M57.0074 58.0096C59.0256 58.0096 60.6618 56.3735 60.6618 54.3552C60.6618 52.3369 59.0256 50.7008 57.0074 50.7008C54.9891 50.7008 53.353 52.3369 53.353 54.3552C53.353 56.3735 54.9891 58.0096 57.0074 58.0096Z" fill="white"/>
<path d="M90.5242 59.6557C93.4515 59.6557 95.8246 57.2826 95.8246 54.3552C95.8246 51.4278 93.4515 49.0547 90.5242 49.0547C87.5968 49.0547 85.2237 51.4278 85.2237 54.3552C85.2237 57.2826 87.5968 59.6557 90.5242 59.6557Z" fill="#75DDF9"/>
<path d="M90.5242 56.1562C91.5188 56.1562 92.3251 55.3498 92.3251 54.3552C92.3251 53.3605 91.5188 52.5542 90.5242 52.5542C89.5295 52.5542 88.7232 53.3605 88.7232 54.3552C88.7232 55.3498 89.5295 56.1562 90.5242 56.1562Z" fill="white"/>
<path d="M50.263 71.936C50.1274 71.7227 49.9844 71.5161 49.8342 71.3165C49.6636 71.091 49.5505 70.8274 49.5047 70.5483C49.459 70.2693 49.482 69.9833 49.5718 69.7152L50.4678 67.0426C50.5989 66.6492 50.5856 66.222 50.4304 65.8376C50.2751 65.4532 49.988 65.1366 49.6205 64.9446L48.2995 64.256C47.9311 64.0651 47.5067 64.0118 47.1025 64.1057C46.6983 64.1995 46.3407 64.4343 46.0941 64.768L44.407 67.0246C44.2362 67.2497 44.0131 67.4299 43.7571 67.5496C43.5012 67.6694 43.2199 67.7251 42.9376 67.712C42.4358 67.6913 41.9332 67.7123 41.4349 67.7747C41.1544 67.8091 40.8698 67.7748 40.6055 67.6747C40.3413 67.5745 40.1053 67.4116 39.9181 67.2L38.0493 65.0931C37.7742 64.7831 37.3977 64.5812 36.9872 64.5235C36.5768 64.4658 36.1592 64.5561 35.8093 64.7782L34.56 65.5782C34.21 65.8002 33.9505 66.1396 33.828 66.5355C33.7056 66.9315 33.7282 67.3581 33.8918 67.7389L35.0016 70.3257C35.1131 70.5856 35.1597 70.8687 35.1374 71.1505C35.1151 71.4324 35.0245 71.7046 34.8736 71.9437C34.6052 72.3685 34.3719 72.8146 34.176 73.2774C34.0652 73.5372 33.8929 73.7662 33.6739 73.9446C33.4549 74.123 33.1959 74.2454 32.919 74.3014L30.1568 74.88C29.7508 74.9632 29.3876 75.1881 29.1322 75.5146C28.8769 75.841 28.7459 76.2476 28.7629 76.6617L28.8256 78.1453C28.8416 78.5601 29.0051 78.9556 29.2866 79.2606C29.5682 79.5657 29.9494 79.7602 30.3616 79.8093L33.1584 80.1421C33.4392 80.1757 33.7077 80.277 33.9407 80.4373C34.1737 80.5976 34.3643 80.8121 34.496 81.0624C34.6112 81.2838 34.7379 81.5002 34.8736 81.7152C35.0093 81.9302 35.1526 82.135 35.3024 82.3334C35.4728 82.5593 35.5857 82.8231 35.6314 83.1023C35.6771 83.3815 35.6543 83.6676 35.5648 83.936L34.6688 86.6073C34.5379 87.0009 34.5513 87.4282 34.7065 87.8127C34.8618 88.1973 35.1488 88.5142 35.5162 88.7066L36.8307 89.3939C37.1998 89.5854 37.6251 89.639 38.0301 89.5449C38.4351 89.4508 38.7932 89.2152 39.04 88.8806L40.727 86.624C40.8967 86.3972 41.119 86.2152 41.3748 86.0936C41.6307 85.9721 41.9122 85.9147 42.1952 85.9264C42.6974 85.947 43.2005 85.9261 43.6992 85.8637C43.9797 85.8294 44.2643 85.8638 44.5285 85.9639C44.7927 86.064 45.0287 86.2268 45.216 86.4384L47.0835 88.544C47.3587 88.8543 47.7353 89.0565 48.146 89.1145C48.5567 89.1724 48.9745 89.0822 49.3248 88.8601L50.5766 88.0653C50.9268 87.8431 51.1864 87.5036 51.3091 87.1075C51.4318 86.7113 51.4094 86.2845 51.2461 85.9034L50.1363 83.3165C50.0249 83.0568 49.9783 82.774 50.0006 82.4923C50.0229 82.2107 50.1134 81.9387 50.2643 81.6998C50.5333 81.2755 50.7662 80.8293 50.9606 80.3661C51.0711 80.1041 51.2439 79.8731 51.4641 79.6932C51.6843 79.5134 51.9452 79.3902 52.224 79.3344L54.9837 78.7699C55.3897 78.6864 55.7527 78.4612 56.0079 78.1345C56.263 77.8078 56.3936 77.401 56.3763 76.9869L56.3149 75.5046C56.2986 75.0899 56.1351 74.6945 55.8535 74.3896C55.572 74.0846 55.191 73.8899 54.7789 73.8406L51.9821 73.5078C51.7012 73.4746 51.4326 73.3734 51.1995 73.213C50.9665 73.0527 50.776 72.838 50.6445 72.5875C50.5259 72.3699 50.3987 72.1527 50.263 71.936Z" fill="#F9CE46"/>
<path d="M42.569 81.1635C44.9668 81.1635 46.9107 79.2197 46.9107 76.8218C46.9107 74.4239 44.9668 72.48 42.569 72.48C40.1711 72.48 38.2272 74.4239 38.2272 76.8218C38.2272 79.2197 40.1711 81.1635 42.569 81.1635Z" fill="#FF7348"/>
<path d="M40.448 73.5027C42.6803 72.1485 45.6806 73.2186 46.3757 75.7965C47.1437 78.6291 44.5722 81.2365 41.7306 80.6707C41.2262 80.5709 41.0099 81.344 41.5168 81.4387C44.8845 82.1082 47.9693 79.1552 47.191 75.7427C46.4678 72.5722 42.7674 71.1514 40.0435 72.7987C39.6019 73.0662 40.0051 73.76 40.448 73.4925V73.5027Z" fill="#112870"/>
<path d="M12.3686 20.384C10.486 36.0304 10.1003 51.8208 11.2166 67.5405C11.4816 71.2179 11.7632 74.9159 12.2957 78.5664C12.7347 81.5731 13.4477 84.6656 15.1667 87.2269C18.5971 92.3584 24.9459 93.1712 30.6394 93.2032C38.3654 93.248 46.1005 93.0752 53.8266 92.9959L77.5578 92.7731L101.546 92.544C104.946 92.512 108.673 92.8218 111.891 91.5098C114.714 90.3578 116.686 87.9079 117.866 85.1623C119.252 81.9341 119.53 78.3783 119.453 74.9018C119.375 71.3664 119.049 67.8336 118.858 64.3047C118.461 56.9421 118.182 49.5731 117.834 42.208C117.661 38.56 117.473 34.912 117.247 31.2691C117.132 29.408 117.004 27.5477 116.863 25.6883C116.756 24.2803 116.526 22.9031 116.009 21.5783C115.055 19.1386 113.34 17.0035 111.06 15.6903C109.17 14.5984 107.148 14.368 105.023 14.1709C97.0611 13.4311 89.079 12.8909 81.0944 12.4851C71.5904 12 62.0685 11.7095 52.5478 11.776C44.0998 11.8336 35.5891 12.0832 27.2205 13.312C24.2368 13.7472 21.2288 14.3002 18.3744 15.2973C16.5299 15.9373 14.4832 16.7987 13.2339 18.3693C12.7634 18.9481 12.4638 19.6467 12.3686 20.3866C12.3034 20.8986 13.1059 20.8986 13.1699 20.3866C13.3555 18.9325 14.7763 17.8522 16.0627 17.1546C18.2682 15.9578 20.7834 15.3293 23.2218 14.8186C30.7187 13.2455 38.4909 12.8986 46.1338 12.6861C55.4266 12.4301 64.7309 12.6042 74.0186 12.969C82.4666 13.3009 90.9035 13.8052 99.3293 14.4819C101.027 14.6185 102.726 14.764 104.424 14.9184C106.419 15.1015 108.403 15.209 110.225 16.1447C112.634 17.3824 114.465 19.5891 115.37 22.1299C115.864 23.5187 116.01 24.9242 116.122 26.3847C116.25 28.1656 116.369 29.952 116.48 31.744C116.923 38.9645 117.22 46.1939 117.54 53.4221C117.697 56.9754 117.859 60.5299 118.052 64.0819C118.236 67.5251 118.54 70.9683 118.646 74.4141C118.836 80.6003 117.647 89.0535 110.65 91.1014C108.986 91.5904 107.229 91.6762 105.5 91.7069C103.631 91.7389 101.764 91.744 99.895 91.7619L88.2842 91.8707L41.8432 92.3072C38.176 92.3418 34.5062 92.4147 30.8352 92.4032C27.9245 92.3943 24.9549 92.2483 22.1606 91.3626C19.3446 90.4666 16.9485 88.7296 15.4509 86.1581C13.8445 83.401 13.2749 80.1421 12.9011 77.0215C11.0771 61.9584 10.9478 46.6099 12.087 31.488C12.3661 27.7786 12.727 24.076 13.1699 20.3802C13.2314 19.8733 12.4288 19.8771 12.3686 20.384Z" fill="#112870"/>
<path d="M15.5392 29.353C27.1539 29.0752 38.7597 28.5632 50.3718 28.2189C62.1146 27.8707 73.8611 27.7799 85.6064 28.1178C93.8099 28.3533 102.007 28.777 110.195 29.3299C110.707 29.3645 110.707 28.5619 110.195 28.5274C96.5453 27.6045 82.8723 27.0682 69.1917 27.0938C58.0198 27.1143 46.857 27.5149 35.6941 27.9181C28.9766 28.16 22.2541 28.3904 15.5392 28.5504C15.0272 28.5632 15.0272 29.3658 15.5392 29.353Z" fill="#FF7348"/>
<path d="M19.287 21.4477V21.2301C19.2948 21.0695 19.2552 20.9101 19.1731 20.7718C19.1181 20.6218 19.024 20.4892 18.9005 20.3878C18.7815 20.2719 18.6354 20.1874 18.4755 20.1421C18.3157 20.0667 18.14 20.0316 17.9635 20.0397C17.6205 20.0382 17.2886 20.162 17.0304 20.3878C16.9129 20.4951 16.8184 20.625 16.7524 20.7697C16.6864 20.9145 16.6503 21.0711 16.6464 21.2301V21.4477C16.6382 21.6087 16.6778 21.7686 16.7603 21.9072C16.8144 22.0577 16.9087 22.1905 17.033 22.2912C17.152 22.4074 17.298 22.4922 17.4579 22.5382C17.6176 22.6137 17.7934 22.6489 17.9699 22.6406C18.3132 22.6418 18.645 22.5175 18.903 22.2912C19.0205 22.1839 19.1151 22.054 19.1811 21.9093C19.2471 21.7646 19.2831 21.608 19.287 21.449V21.4477Z" fill="#A89FFF"/>
<path d="M24.009 22.6394C25.7062 22.6394 25.7101 20.2573 24.009 20.2573C22.3078 20.2573 22.3078 22.6394 24.009 22.6394Z" fill="#A89FFF"/>
<path d="M29.3248 22.6394C31.0234 22.6394 31.0259 20.2573 29.3248 20.2573C27.6237 20.2573 27.6237 22.6394 29.3248 22.6394Z" fill="#A89FFF"/>
<path d="M101.809 22.3322H105.009C105.521 22.3322 105.521 21.5296 105.009 21.5296H101.809C101.297 21.5296 101.297 22.3322 101.809 22.3322Z" fill="#4081F4"/>
<path d="M102.362 82.4973C102.362 82.4973 101.286 94.633 96.7782 102.024C92.3418 100.134 84.9523 96.5939 80.8013 96.6848C76.6502 96.7757 62.7533 82.0519 62.8186 77.1008C63.2026 74.3117 71.9987 64.0922 84.4826 64.5875C89.056 71.7863 102.362 82.4973 102.362 82.4973Z" fill="#FC92C3"/>
<path d="M80.5568 96.4531L61.7139 67.6531L63.7619 65.9891L67.2998 63.1565L69.9533 61.0317L93.5603 86.2323C94.3433 87.0678 94.9449 88.0563 95.3274 89.1355C95.7098 90.2148 95.8649 91.3615 95.7828 92.5035C95.7007 93.6456 95.3832 94.7583 94.8503 95.7718C94.3173 96.7852 93.5805 97.6774 92.6861 98.3923C91.7827 99.1142 90.7384 99.6395 89.6202 99.9343C88.502 100.229 87.3346 100.287 86.1927 100.105C85.0507 99.9221 83.9596 99.503 82.989 98.8741C82.0185 98.2453 81.1901 97.4207 80.5568 96.4531Z" fill="#4081F4"/>
<path d="M103.013 69.8624C103.013 69.8624 80.5197 59.3536 74.5395 67.8566C73.0035 70.5446 77.3414 74.1747 83.799 74.5293C83.9706 78.8314 87.6493 86.4704 100.791 91.5814C102.199 88.1779 103.694 77.769 103.013 69.8624Z" fill="#FC92C3"/>
<path d="M76.7437 65.3978C75.3638 66.3642 73.6474 67.7965 74.2566 69.7101C74.7686 71.3203 76.6195 72.5261 78.0442 73.239C78.8651 73.6437 79.7169 73.9826 80.5914 74.2528C81.0458 74.3974 81.504 74.5267 81.9648 74.647C82.1606 74.6995 82.3578 74.7482 82.5549 74.7981C82.9389 74.8954 83.0259 75.0195 83.1808 75.3907C84.0038 77.3606 84.6336 79.3945 85.7869 81.2134C87.0336 83.1808 88.4941 84.9843 90.2554 86.5126C90.6394 86.8506 91.2128 86.2848 90.8224 85.9456C89.3695 84.668 88.0871 83.2088 87.0067 81.6038C85.9046 80 85.12 78.2515 84.4096 76.4365C84.233 75.9821 84.0717 75.5238 83.9168 75.0618C83.8195 74.7699 83.7286 74.4845 83.4765 74.2938C83.2 74.08 82.8019 74.0378 82.473 73.9546C82.0463 73.8453 81.6196 73.7284 81.193 73.6038C79.529 73.1072 77.865 72.4377 76.5197 71.3165C75.7376 70.656 74.7802 69.76 74.976 68.6387C75.1808 67.465 76.2394 66.7277 77.152 66.0902C77.5718 65.7971 77.1712 65.1008 76.7475 65.3978H76.7437Z" fill="#112870"/>
<path d="M77.0035 67.5443C77.2468 67.8865 77.5823 68.1524 77.971 68.3111C78.3597 68.4697 78.7855 68.5146 79.1987 68.4403C80.2598 68.2765 80.9997 67.4406 81.6307 66.6483C81.9507 66.249 81.3862 65.6781 81.0637 66.0813C80.3635 66.953 78.7187 68.5926 77.6896 67.1347C77.3939 66.7162 76.6989 67.1168 76.9971 67.5392L77.0035 67.5443Z" fill="white"/>
<path d="M64.8525 73.6C64.8525 73.6 59.2 78.9095 63.561 83.5533C66.6048 86.7047 79.552 77.5744 76.6272 74.1645C73.7293 70.8045 68.4352 74.6765 66.5907 76.1779" fill="#FC92C3"/>
<path d="M76.7232 76.672C76.7232 76.672 79.7107 75.9437 81.4874 78.4166C83.264 80.8896 75.8362 85.9686 70.8352 89.4246C67.7722 91.0656 63.8042 86.793 66.8915 83.2653C69.9789 79.7376 76.7232 76.672 76.7232 76.672Z" fill="#FC92C3"/>
<path d="M80.4083 81.8586C80.4083 81.8586 82.1683 80.896 83.968 83.0374C85.7677 85.1789 82.3578 88.3584 79.744 90.5984C77.1302 92.8384 73.9494 94.8634 72.3725 93.1239C70.7955 91.3843 70.3014 89.257 71.9885 87.4509C73.6755 85.6448 80.4083 81.8586 80.4083 81.8586Z" fill="#FC92C3"/>
<path d="M82.336 86.88C82.336 86.88 84.736 85.9213 86.912 89.2762C89.088 92.631 82.2387 96.2368 79.319 97.5424C76.3994 98.848 73.344 93.504 76.0397 91.415C78.7354 89.3261 82.336 86.88 82.336 86.88Z" fill="#FC92C3"/>
<path d="M66.5075 76.544C67.4496 75.8707 68.3866 75.1898 69.3363 74.528C70.24 73.8982 71.1898 73.2838 72.2637 72.992C74.2694 72.4518 76.7578 73.5654 76.2458 75.9782C75.7747 78.199 73.271 79.7069 71.5226 80.8755C70.5644 81.5167 69.5745 82.1092 68.5568 82.6509C67.4739 83.2269 66.2861 83.8502 65.0202 83.6608C64.5082 83.5853 64.297 84.3584 64.8064 84.4288C66.8826 84.7398 68.8602 83.4547 70.5664 82.4269C72.3827 81.3325 74.3616 80.0781 75.7773 78.4755C76.9408 77.1584 77.6832 75.1142 76.5696 73.5283C75.625 72.1856 73.7843 71.8106 72.2586 72.16C69.9546 72.6886 67.9821 74.5024 66.1043 75.8426C65.687 76.1395 66.0877 76.8358 66.5088 76.535L66.5075 76.544Z" fill="#112870"/>
<path d="M77.3542 77.1213C78.752 77.3286 81.1123 78.2566 81.1162 79.9757C81.1162 81.7677 78.9978 82.8185 77.7242 83.6877L73.1162 86.807C72.3482 87.328 71.5802 87.8515 70.8122 88.3673C70.1261 88.8281 69.1034 89.527 68.3341 88.8307C67.9501 88.4851 67.383 89.0509 67.767 89.3977C69.3978 90.8723 71.5482 88.8358 72.887 87.9257L78.9568 83.8131C80.3776 82.8505 82.1926 81.5667 81.879 79.5891C81.5885 77.696 79.2486 76.5977 77.568 76.3481C77.0637 76.2726 76.8448 77.0457 77.3555 77.1161L77.3542 77.1213Z" fill="#112870"/>
<path d="M82.0301 82.327C82.3194 82.4361 82.5842 82.6013 82.8094 82.8131C83.0346 83.0249 83.2157 83.2791 83.3423 83.5612C83.4689 83.8432 83.5385 84.1476 83.547 84.4566C83.5555 84.7656 83.5028 85.0733 83.392 85.3619C82.9325 86.5779 81.801 87.5725 80.8896 88.4595C79.9245 89.4009 78.8982 90.2774 77.8176 91.0835C77.2783 91.4854 76.727 91.8694 76.1638 92.2355C75.5238 92.6515 74.8493 93.1315 74.0723 93.2275C73.568 93.2928 73.5603 94.0966 74.0723 94.0301C75.6838 93.8214 77.1443 92.5926 78.4026 91.6403C79.7714 90.6074 81.0555 89.4667 82.2426 88.2291C83.2154 87.2141 84.343 86.0198 84.361 84.5171C84.3776 83.1731 83.465 82.007 82.2387 81.5501C81.7549 81.3696 81.545 82.1453 82.0262 82.3181L82.0301 82.327Z" fill="#112870"/>
<path d="M83.9552 87.3434C86.0147 88.4198 87.3472 91.1104 85.353 92.9587C84.5043 93.7446 83.4138 94.3232 82.4474 94.953L79.0835 97.152C78.6534 97.4323 79.0541 98.1274 79.488 97.8445L83.584 95.1667C84.6541 94.4678 85.929 93.8048 86.6227 92.6835C88.0307 90.4051 86.4678 87.7555 84.3546 86.6509C83.8976 86.4128 83.4918 87.104 83.9501 87.3446L83.9552 87.3434Z" fill="#112870"/>
<path d="M71.424 75.2781C71.3242 76.023 71.552 76.7693 72.1587 77.2493C72.6976 77.6794 73.4989 77.7395 73.9277 77.1354C74.2272 76.7142 73.5322 76.3123 73.2352 76.7309C73.0662 76.969 72.6093 76.6029 72.5018 76.4749C72.3858 76.3408 72.2989 76.184 72.2467 76.0146C72.1945 75.8451 72.178 75.6667 72.1984 75.4906C72.2662 74.9862 71.4931 74.7674 71.4304 75.2781H71.424Z" fill="white"/>
<path d="M76.3507 79.4675C76.2635 79.861 76.2934 80.2713 76.4368 80.6479C76.5801 81.0245 76.8306 81.351 77.1573 81.5869C77.484 81.8228 77.8726 81.9578 78.2752 81.9754C78.6778 81.993 79.0767 81.8923 79.4227 81.6858C79.8707 81.4298 79.4675 80.736 79.0182 80.9933C78.0723 81.5347 76.9178 80.7795 77.1302 79.6813C77.2275 79.177 76.4544 78.9607 76.3622 79.4675H76.3507Z" fill="white"/>
<path d="M79.6877 85.3594C79.8289 85.7699 80.1144 86.1152 80.4911 86.3311C80.8678 86.547 81.31 86.6188 81.7357 86.5331C82.2413 86.4346 82.0275 85.6602 81.5219 85.7651C81.3012 85.8018 81.0747 85.7605 80.8811 85.6484C80.6875 85.5363 80.5389 85.3604 80.4608 85.1507C80.2918 84.6669 79.5174 84.8742 79.6864 85.3645L79.6877 85.3594Z" fill="white"/>
<path d="M83.2218 89.9328C83.2243 90.2142 83.3017 90.4898 83.446 90.7314C83.5904 90.9729 83.7964 91.1717 84.043 91.3073C84.2896 91.4428 84.5678 91.5102 84.8491 91.5026C85.1304 91.495 85.4046 91.4127 85.6435 91.264C86.0838 90.9952 85.6806 90.3015 85.239 90.5715C84.7002 90.9005 84.0435 90.5792 84.023 89.9315C84.0077 89.4195 83.2051 89.4195 83.2218 89.9315V89.9328Z" fill="white"/>
<path d="M57.1213 46.6291L62.3834 53.1942C62.6565 53.5271 62.8337 53.9281 62.896 54.3541C62.9582 54.7801 62.9031 55.2151 62.7366 55.6121L61.335 58.8121C61.1977 59.1261 60.9862 59.402 60.7186 59.616C60.4511 59.8301 60.1355 59.9759 59.799 60.0409L56.3763 60.7129C55.9525 60.7892 55.516 60.7484 55.1136 60.5951C54.7112 60.4417 54.3583 60.1815 54.0928 59.8425L48.8307 53.2774C48.0627 52.32 46.6048 52.5094 46.2054 53.6128L44.7693 57.6C44.6442 57.962 44.6139 58.35 44.6811 58.7271C44.7483 59.1041 44.9108 59.4577 45.1533 59.7542L52.9062 69.4259C53.1429 69.7269 53.4526 69.9624 53.8059 70.11C54.1592 70.2576 54.5443 70.3125 54.9248 70.2694L66.7123 68.7654C67.0802 68.7208 67.4284 68.5747 67.718 68.3435C68.0076 68.1122 68.2271 67.8049 68.352 67.456L72.3853 56.279C72.51 55.917 72.5401 55.529 72.4729 55.1521C72.4057 54.7751 72.2434 54.4215 72.0013 54.1248L64.2432 44.4467C64.0064 44.1458 63.6967 43.9104 63.3435 43.7628C62.9902 43.6152 62.6051 43.5602 62.2246 43.6032L58.0198 44.1395C56.8525 44.288 56.3533 45.6717 57.1213 46.6291Z" fill="#4081F4"/>
<path d="M57.472 44.7488L60.4544 44.2483C61.3594 44.0973 62.592 43.6826 63.4432 44.192C64.2176 44.6554 64.7923 45.632 65.3555 46.313L67.383 48.768C68.7488 50.4205 70.2208 52.0282 71.4931 53.76C72.1408 54.6394 71.9424 55.657 71.7491 56.6579C71.5708 57.5467 71.3447 58.4252 71.072 59.2896C70.4452 61.3042 69.5652 63.231 68.4531 65.024C68.1792 65.463 68.873 65.8662 69.1456 65.4285C70.2144 63.6988 71.0738 61.8481 71.7056 59.9155C72.0406 58.916 72.3125 57.8964 72.5197 56.8627C72.695 55.9757 72.9037 55.0029 72.6042 54.1184C72.2854 53.1712 71.4099 52.3802 70.7878 51.6275L68.439 48.7859L66.176 46.039C65.5194 45.2454 64.896 44.247 64.0538 43.6339C63.2115 43.0208 62.1862 43.1526 61.2058 43.3152L57.2698 43.9757C56.7578 44.0602 56.9766 44.8333 57.4822 44.7437L57.472 44.7488Z" fill="#112870"/>
<path d="M70.4397 61.7779L75.4317 67.0003C75.7901 67.3741 76.3558 66.8058 76 66.432L71.008 61.2096C70.6509 60.8359 70.0838 61.4042 70.441 61.7779H70.4397Z" fill="#112870"/>
<path d="M46.8173 53.504C48.3686 52.608 49.6333 54.6944 50.4141 55.7043C51.3331 56.899 52.2995 58.051 53.3133 59.1603C53.7498 59.6378 54.1914 60.2407 54.7456 60.5888C55.3382 60.96 56.0922 60.8627 56.7565 60.823C58.338 60.7256 59.9065 60.4757 61.44 60.0768C61.9392 59.9488 61.728 59.1731 61.2262 59.3088C59.6074 59.7334 57.9474 59.9823 56.2752 60.0512C55.7632 60.0704 55.3203 60.073 54.9261 59.7031C54.6458 59.4394 54.3898 59.145 54.1286 58.8621C53.5612 58.2502 53.0091 57.6252 52.4723 56.9869C51.5098 55.8438 50.697 54.4935 49.6205 53.4579C48.7629 52.6311 47.5174 52.1779 46.4205 52.8179C45.9725 53.0739 46.377 53.769 46.825 53.5104L46.8173 53.504Z" fill="#112870"/>
<path d="M63.6032 69.7203L64.8474 69.0534C65.303 68.809 64.8986 68.1165 64.4429 68.361L63.1974 69.0278C62.743 69.271 63.1475 69.9635 63.6032 69.7203Z" fill="#112870"/>
<path d="M103.016 69.8125C103.016 69.8125 124.362 77.1571 124.776 81.7728C125.189 86.3885 121.303 113.368 119.45 115.584C117.596 117.8 102.698 104.607 96.7936 102.039C90.889 99.4714 103.51 75.7593 103.016 69.8125Z" fill="#FC92C3"/>
<path d="M105.496 92.4544C107.131 87.6751 107.736 82.6041 107.272 77.5744C107.224 77.0624 106.422 77.0624 106.469 77.5744C106.931 82.5317 106.335 87.5305 104.722 92.2406C104.554 92.7309 105.33 92.9408 105.496 92.4544Z" fill="#112870"/>
<path d="M103.831 97.408C104.343 97.408 104.343 96.6054 103.831 96.6054C103.319 96.6054 103.319 97.408 103.831 97.408Z" fill="#112870"/>
<path d="M36.6298 51.0464C36.5572 50.6735 36.4719 50.3078 36.3738 49.9494C36.2597 49.541 36.2467 49.111 36.3359 48.6964C36.4251 48.2819 36.6138 47.8953 36.8858 47.5699L39.584 44.3264C39.981 43.8491 40.1952 43.246 40.1882 42.6252C40.1811 42.0044 39.9534 41.4064 39.5456 40.9382L38.0864 39.2627C37.6784 38.7944 37.117 38.4866 36.5028 38.3944C35.8886 38.3023 35.2616 38.4317 34.7341 38.7597L31.1501 40.9881C30.7895 41.213 30.3795 41.3465 29.9557 41.3768C29.5318 41.4071 29.107 41.3335 28.7181 41.1622C28.029 40.86 27.3162 40.6151 26.5869 40.4301C26.1766 40.3256 25.798 40.1227 25.4838 39.839C25.1695 39.5553 24.9291 39.1994 24.7834 38.8019L23.3242 34.8454C23.1097 34.2623 22.6946 33.7747 22.1533 33.4698C21.6119 33.1649 20.9797 33.0626 20.3699 33.1814L18.1939 33.6077C17.5845 33.7271 17.0374 34.0595 16.6507 34.5455C16.264 35.0314 16.0628 35.6391 16.0832 36.2598L16.2214 40.4736C16.2358 40.8967 16.1469 41.317 15.9625 41.6981C15.778 42.0793 15.5036 42.4098 15.1629 42.6611C14.5569 43.1072 13.9888 43.6026 13.4643 44.1421C13.1676 44.4488 12.8002 44.6782 12.3943 44.8101C11.9884 44.942 11.5564 44.9723 11.136 44.8985L6.97728 44.183C6.36523 44.0779 5.73575 44.1941 5.20151 44.5107C4.66727 44.8273 4.26313 45.3237 4.06144 45.911L3.34208 48.0128C3.14046 48.6001 3.15454 49.2401 3.38181 49.818C3.60909 50.3959 4.0347 50.874 4.5824 51.1667L8.30336 53.1545C8.67724 53.3541 8.99688 53.6417 9.23462 53.9925C9.47237 54.3433 9.62106 54.7468 9.66784 55.168C9.71008 55.5379 9.7664 55.9104 9.83936 56.2829C9.91232 56.6553 9.99936 57.0214 10.0954 57.3798C10.2098 57.788 10.2229 58.2179 10.1337 58.6323C10.0445 59.0467 9.8556 59.4331 9.58336 59.7581L6.89536 63.0016C6.49823 63.4791 6.28401 64.0823 6.29104 64.7034C6.29808 65.3244 6.52591 65.9226 6.93376 66.391L8.39424 68.0665C8.80206 68.5348 9.36331 68.8424 9.97739 68.9344C10.5915 69.0263 11.2182 68.8965 11.7453 68.5683L15.3293 66.3398C15.6901 66.1156 16.1 65.9825 16.5238 65.9522C16.9475 65.9218 17.3722 65.9951 17.7613 66.1657C18.4505 66.4692 19.1638 66.7145 19.8938 66.8992C20.3037 67.0039 20.6821 67.2066 20.9963 67.49C21.3105 67.7735 21.5511 68.129 21.6973 68.5261L23.1552 72.4825C23.3695 73.0658 23.7845 73.5536 24.3259 73.8586C24.8673 74.1635 25.4996 74.2656 26.1094 74.1465L28.2854 73.7203C28.8949 73.6014 29.4421 73.2693 29.8289 72.7835C30.2157 72.2977 30.4168 71.69 30.3962 71.0694L30.2579 66.8544C30.2435 66.4314 30.3323 66.0113 30.5168 65.6303C30.7012 65.2494 30.9757 64.9191 31.3165 64.6681C31.9224 64.2216 32.4905 63.7258 33.015 63.1859C33.3102 62.8816 33.6751 62.6539 34.0781 62.5223C34.4811 62.3907 34.9101 62.3593 35.328 62.4307L39.4867 63.1449C40.0987 63.2507 40.7282 63.1349 41.2626 62.8185C41.7969 62.5021 42.2011 62.0056 42.4026 61.4182L43.1232 59.3165C43.3251 58.7291 43.3111 58.0891 43.0838 57.5111C42.8565 56.9331 42.4308 56.455 41.8829 56.1625L38.1619 54.1734C37.7884 53.9738 37.4691 53.6863 37.2314 53.3357C36.9937 52.9852 36.8447 52.5821 36.7974 52.1613C36.759 51.7901 36.7027 51.4189 36.6298 51.0464Z" fill="#F9CE46"/>
<path d="M23.2346 60.1664C26.8257 60.1664 29.737 57.2552 29.737 53.664C29.737 50.0728 26.8257 47.1616 23.2346 47.1616C19.6434 47.1616 16.7322 50.0728 16.7322 53.664C16.7322 57.2552 19.6434 60.1664 23.2346 60.1664Z" fill="#FF7348"/>
<path d="M22.0941 47.6698C26.1171 46.9402 29.8342 50.3872 29.2851 54.4781C29.155 55.4054 28.8152 56.2909 28.2915 57.0671C27.7679 57.8434 27.0741 58.4901 26.263 58.9581C24.233 60.1203 21.7498 59.9706 19.8067 58.7021C19.3728 58.4205 18.9696 59.1143 19.4022 59.3946C22.6419 61.5015 27.0707 60.5786 29.1136 57.2736C30.9568 54.2912 30.1965 50.2784 27.4112 48.16C26.6295 47.5727 25.7337 47.1554 24.7812 46.935C23.8286 46.7146 22.8405 46.6958 21.8803 46.88C21.3683 46.9722 21.5885 47.7453 22.0941 47.6544V47.6698Z" fill="#112870"/>
<path d="M67.1245 44.4557C70.6765 45.7498 74.3872 46.4781 78.1146 47.0579C81.7984 47.6301 85.5475 47.9923 89.184 48.832C90.848 49.216 92.6067 49.8087 93.8176 51.0835C94.8621 52.1831 95.5341 53.8663 94.999 55.36C94.4973 56.7603 93.321 57.9853 92.0026 58.6394C90.5011 59.3856 88.6746 59.3639 87.0362 59.4074C82.9094 59.5277 78.7917 59.1258 74.6701 59.0311C74.1581 59.0195 74.1581 59.8221 74.6701 59.8336C78.679 59.9258 82.6816 60.3059 86.6957 60.2176C88.4045 60.1805 90.2989 60.2061 91.9066 59.5507C93.2735 58.9839 94.4253 57.9979 95.1962 56.7347C97.0291 53.7728 95.2128 50.4704 92.3302 49.0547C90.6662 48.2343 88.8064 47.9027 86.9888 47.5955C84.9664 47.2461 82.9338 46.9619 80.9037 46.6688C76.3149 46.0045 71.7107 45.2762 67.3357 43.6839C66.8506 43.5072 66.6406 44.2816 67.1232 44.4519L67.1245 44.4557Z" fill="#112870"/>
<path d="M47.3882 49.8317C48.5402 46.7597 51.5891 44.5901 54.8672 44.4826C55.3792 44.4646 55.3856 43.6634 54.8672 43.68C53.0614 43.7538 51.317 44.3558 49.8501 45.4116C48.3832 46.4673 47.2584 47.9303 46.615 49.6192C46.4333 50.103 47.209 50.3117 47.383 49.8317H47.3882Z" fill="#112870"/>
<path d="M43.0246 32.6733C49.0351 32.882 55.0526 32.7513 61.0483 32.2816C64.1907 32.0358 67.3318 31.6966 70.4832 31.7338C73.7741 31.7722 77.0573 32.2227 80.3482 32.1178C82.1875 32.0576 84.0307 31.8246 85.8624 31.9898C86.816 32.0781 87.7939 32.2893 88.5619 32.8576C89.3299 33.4259 89.8419 34.4154 89.6013 35.3357C89.4003 36.1037 88.7206 36.6861 87.9706 36.9766C87.2205 37.2672 86.4013 37.3146 85.5974 37.3517C80.6541 37.5808 75.703 37.5629 70.7494 37.5206C65.4003 37.4746 60.0512 37.3926 54.7021 37.3222L43.1117 37.1584C42.8954 37.1584 42.6586 37.1456 42.4934 37.0061C42.3634 36.8756 42.2786 36.707 42.2515 36.5248C41.995 35.4431 42.0846 34.3081 42.5075 33.28" fill="#E3E5E5"/>
<path d="M82.0595 32.9267C82.0373 34.1214 82.0442 35.3161 82.08 36.5107C82.0954 37.0227 82.8979 37.0227 82.8826 36.5107C82.8467 35.3161 82.8399 34.1214 82.8621 32.9267C82.8723 32.4147 82.0698 32.4147 82.0595 32.9267Z" fill="white"/>
<path d="M86.1901 33.321C85.9053 33.2388 85.6004 33.2626 85.3317 33.3877C85.063 33.5129 84.8487 33.7311 84.7283 34.0019C84.4582 34.6099 84.7168 35.3434 85.225 35.7414C86.3987 36.6579 87.9309 34.999 87.1194 33.8368C86.9469 33.6054 86.6998 33.4408 86.4199 33.3708C86.1399 33.3008 85.8444 33.3298 85.5834 33.4528C85.3383 33.5813 85.1461 33.7917 85.0401 34.0473C84.9342 34.303 84.9212 34.5876 85.0035 34.8518C85.1546 35.3638 85.7626 35.9053 86.3168 35.5789C86.871 35.2525 86.9414 34.3488 86.4691 33.9418C85.9149 33.463 84.9331 34.0608 85.3517 34.7571C85.4392 34.889 85.5691 34.9871 85.7199 35.0352C85.8707 35.0834 86.0333 35.0788 86.1811 35.0221C86.537 34.8941 86.6662 34.5574 86.711 34.2118C86.7776 33.6998 85.975 33.7062 85.9098 34.2118C85.8854 34.391 86.0019 34.5536 85.9661 34.7379C85.9597 34.7913 85.9404 34.8422 85.9098 34.8864C85.9494 34.8518 85.9366 34.8262 85.8714 34.807C85.8178 34.7477 85.7806 34.6753 85.7636 34.5972C85.7465 34.5191 85.7501 34.4379 85.7741 34.3616C85.9123 33.952 86.5062 34.1389 86.5306 34.5242C86.5651 35.0643 85.9405 35.447 85.5706 34.9645C85.3082 34.6214 85.4221 33.92 85.9699 34.089C86.4653 34.2413 86.6765 33.4669 86.1837 33.3146L86.1901 33.321Z" fill="#75DDF9"/>
<path d="M97.5859 40.832C102.131 40.7196 106.678 41.0135 111.171 41.7101L110.876 41.3261L110.799 45.0483C110.788 45.5808 110.917 46.3795 110.742 46.8736C110.56 47.3856 109.896 47.2115 109.495 47.1168C108.438 46.8485 107.353 46.7088 106.263 46.7008C105.144 46.7008 104.028 46.8058 102.909 46.8006C101.792 46.7986 100.679 46.6632 99.5942 46.3974C99.0383 46.2615 98.4915 46.0905 97.9571 45.8854C97.4093 45.6742 97.4451 45.3491 97.4694 44.8474C97.5501 43.4214 97.6691 41.9379 98.0058 40.5466C98.1338 40.0448 97.3542 39.831 97.2378 40.3341C96.9203 41.641 96.8077 43.0221 96.7053 44.361C96.6643 44.896 96.5043 45.6806 96.8435 46.1427C97.033 46.3987 97.3555 46.5062 97.641 46.6176C98.1744 46.8265 98.7203 47.0022 99.2755 47.1437C101.361 47.6787 103.423 47.584 105.548 47.5187C106.7 47.4829 107.852 47.5187 108.973 47.8093C109.582 47.9667 110.304 48.169 110.903 47.8656C111.799 47.4112 111.58 46.1235 111.597 45.2979L111.68 41.3299C111.679 41.2426 111.65 41.1579 111.597 41.0887C111.544 41.0194 111.47 40.9693 111.386 40.9459C106.822 40.2325 102.205 39.9288 97.5872 40.0384C97.0752 40.0512 97.0752 40.8538 97.5872 40.841L97.5859 40.832Z" fill="#E3E5E5"/>
<path d="M98.8518 51.7017L104.591 51.6941H107.337C108.291 51.6941 109.281 51.6109 110.202 51.9027C110.696 52.0601 110.907 51.2857 110.415 51.1347C109.577 50.8685 108.707 50.8941 107.836 50.8953H104.841L98.8518 50.9043C98.3398 50.9043 98.3398 51.7069 98.8518 51.7056V51.7017Z" fill="#E3E5E5"/>
<path d="M99.1142 55.3293C102.478 55.8256 105.876 56.0516 109.276 56.0051C109.788 55.9974 109.788 55.1949 109.276 55.2026C105.948 55.2525 102.621 55.036 99.328 54.5549C98.8237 54.4806 98.6048 55.2538 99.1155 55.3293H99.1142Z" fill="#E3E5E5"/>
<path d="M102.208 59.0835C104.456 59.7368 106.815 59.9189 109.137 59.6186C109.649 59.5533 109.649 58.7507 109.137 58.8173C106.887 59.1118 104.6 58.9375 102.42 58.3053C101.924 58.1619 101.711 58.9363 102.208 59.0733V59.0835Z" fill="#E3E5E5"/>
<path d="M103.808 62.743C105.504 62.8158 107.202 62.7816 108.893 62.6406C109.405 62.5984 109.405 61.7958 108.893 61.8381C107.202 61.979 105.504 62.0132 103.808 61.9405C103.296 61.9187 103.296 62.7213 103.808 62.743Z" fill="#E3E5E5"/>
<path d="M21.5603 81.271C20.3661 81.2979 19.3587 82.473 19.4176 83.6659C19.4765 84.8589 20.5056 85.8982 21.687 86.071C22.8685 86.2438 24.0998 85.6102 24.7398 84.6016C24.8997 84.3556 25.0177 84.0848 25.0893 83.8003C25.1657 83.47 25.1648 83.1265 25.0867 82.7965C25.0085 82.4666 24.8552 82.1592 24.6387 81.8982C24.4181 81.6408 24.1404 81.4384 23.8277 81.3073C23.515 81.1761 23.176 81.1199 22.8378 81.143" fill="#E3E5E5"/>
<path d="M108.915 66.4807C108.626 66.2336 108.164 66.3104 107.868 66.5485C107.572 66.7866 107.405 67.1424 107.246 67.4867C107.049 67.9155 106.849 68.4109 107.044 68.8397C107.169 69.0649 107.344 69.2582 107.556 69.4042C107.845 69.6384 108.157 69.8816 108.527 69.9251C108.784 69.9477 109.041 69.8943 109.267 69.7715C109.585 69.6096 109.849 69.3596 110.028 69.0514C110.208 68.7432 110.294 68.3899 110.278 68.0337C110.262 67.6776 110.144 67.3336 109.937 67.043C109.73 66.7523 109.445 66.5273 109.114 66.3949" fill="#E3E5E5"/>
<path d="M4.92672 69.8458C6.08458 70.6794 7.43908 71.1981 8.8576 71.351C9.3696 71.4112 9.3696 70.6086 8.8576 70.5498C7.58195 70.3954 6.36775 69.9144 5.33248 69.1533C4.91392 68.8499 4.512 69.545 4.92672 69.8458Z" fill="#112870"/>
<path d="M31.9731 83.6006C30.9402 85.4682 31.3984 87.9526 33.0918 89.2698C33.495 89.5846 34.0659 89.0202 33.6602 88.7027C32.2522 87.6006 31.7914 85.5872 32.6656 84.0051C32.9152 83.5533 32.2227 83.1488 31.9731 83.6006Z" fill="#112870"/>
<path d="M58.1875 80.5658L58.4358 80.0717C58.4828 79.9803 58.4929 79.8744 58.4642 79.7758C58.4355 79.6771 58.3702 79.5932 58.2815 79.5413C58.1929 79.4893 58.0877 79.4733 57.9876 79.4965C57.8875 79.5197 57.8001 79.5803 57.7434 79.6659L57.495 80.1613C57.4435 80.2538 57.4298 80.3626 57.4568 80.465C57.4837 80.5673 57.5493 80.6553 57.6397 80.7104C57.7318 80.7625 57.8407 80.7766 57.943 80.7495C58.0454 80.7225 58.1331 80.6566 58.1875 80.5658Z" fill="#112870"/>
<path d="M30.5011 32.7168L31.2128 29.9878C31.3408 29.4874 30.5728 29.2749 30.4448 29.7741L29.7344 32.5043C29.6064 33.0035 30.3744 33.2173 30.5024 32.7168H30.5011Z" fill="#112870"/>
<path d="M34.6138 33.8803L36.823 31.6365C37.1866 31.2691 36.6195 30.7008 36.256 31.0694L34.048 33.3133C33.6858 33.6806 34.2528 34.249 34.615 33.8803H34.6138Z" fill="#112870"/>
<path d="M38.2963 37.2186L40.5235 36.9702C41.0355 36.9139 41.0355 36.1114 40.5235 36.169L38.2963 36.4173C37.7843 36.4736 37.7843 37.2762 38.2963 37.2186Z" fill="#112870"/>
</svg>
