<svg width="128" height="128" viewBox="0 0 128 128" fill="none" xmlns="http://www.w3.org/2000/svg">
<path d="M79.6672 107.171C79.6672 107.171 81.664 120.813 84.9536 120.813H95.5251C97.8099 120.813 100.81 107.171 100.81 107.171H79.6672Z" fill="#FF7348"/>
<path d="M36.631 107.171C36.631 107.171 38.624 120.813 41.9174 120.813H52.489C54.775 120.813 57.7754 107.171 57.7754 107.171H36.631Z" fill="#FF7348"/>
<path d="M11.9731 98.8262C11.9731 98.8262 13.9648 112.468 17.2582 112.468H27.831C30.1158 112.468 33.1162 98.8262 33.1162 98.8262H11.9731Z" fill="#FF7348"/>
<path d="M44.0858 110.592C39.5392 110.264 16.8026 100.372 13.0048 100.138C9.20703 99.904 11.7389 47.0182 13.0048 42.569C14.2707 38.1197 71.3229 33.664 73.152 38.9606C74.9811 44.2573 48.64 110.921 44.0858 110.592Z" fill="#FF7348"/>
<path d="M101.608 110.546C97.0598 110.218 47.8361 110.781 44.0397 110.546C40.2432 110.31 42.7737 57.4259 44.0397 52.9779C45.3056 48.5299 99.7798 47.68 101.608 52.9779C103.436 58.2758 106.156 110.875 101.608 110.546Z" fill="#F9CE46"/>
<path d="M96.5389 102.444C94.6189 102.316 92.6566 102.511 90.743 102.593C87.1283 102.747 83.5136 102.92 79.8976 103.071C72.064 103.398 64.1907 103.782 56.3558 103.462C55.04 103.409 53.719 103.334 52.4147 103.162C52.0307 103.109 51.543 103.034 51.1232 102.926C50.9555 102.885 50.7904 102.836 50.6265 102.784C50.5159 102.761 50.4104 102.717 50.3155 102.656C50.2707 102.633 50.2323 102.6 50.1875 102.577C50.1683 102.568 50.263 102.664 50.1734 102.554C50.1517 102.527 50.2515 102.666 50.1734 102.543C50.1357 102.482 50.1019 102.417 50.0723 102.351C50.1133 102.436 50.0045 102.164 49.9673 102.044C49.9097 101.853 49.8637 101.66 49.8214 101.466C49.5859 100.384 49.4912 99.3037 49.4029 98.1939C48.8038 90.6419 49.0381 82.9811 49.2889 75.4099C49.4067 71.8464 49.5603 68.2829 49.8176 64.727C49.9033 63.5481 49.9955 62.368 50.1376 61.1942C50.1785 60.8576 50.2054 60.6182 50.2822 60.2125C50.3053 60.096 50.3334 59.9808 50.359 59.8643C50.3705 59.8169 50.4077 59.6377 50.3488 59.8553C50.3782 59.7465 50.4486 59.7785 50.3488 59.8361C50.3885 59.8144 50.4205 59.7542 50.4576 59.7248C50.5702 59.6377 50.3629 59.7849 50.4845 59.7043C50.6047 59.6253 50.73 59.5544 50.8595 59.4918C50.9753 59.4327 51.0961 59.3838 51.2205 59.3459C51.4214 59.2742 51.6249 59.2115 51.8297 59.1526C52.9054 58.8642 53.9987 58.6462 55.1027 58.4998C58.3539 58.0211 61.6486 57.8099 64.928 57.6525C72.5081 57.2915 80.1728 57.2582 87.7363 57.9366C90.1478 58.1529 92.7283 58.3539 95.0106 59.2013C95.2982 59.3013 95.5711 59.4395 95.8221 59.6121C95.9501 59.7017 95.7555 59.5597 95.8681 59.6505C95.916 59.6877 95.959 59.7307 95.9961 59.7785C96.0294 59.8233 95.9245 59.6723 96.0038 59.7977C96.0832 59.9232 95.9731 59.6838 96.0307 59.8592C96.2688 60.5888 96.3737 61.367 96.4851 62.1235C96.9126 65.0304 97.1341 67.9808 97.3414 70.912C97.6213 74.8825 97.8142 78.8582 97.92 82.839C98.0224 86.6547 98.0582 90.4781 97.8982 94.2925C97.7958 96.7065 97.7805 99.3677 96.9843 101.679C96.9036 101.913 96.7967 102.138 96.6656 102.348C96.6579 102.359 96.5376 102.49 96.5657 102.442C96.5401 102.481 96.599 102.442 96.544 102.442C95.8208 102.41 95.8221 103.535 96.544 103.567C98.2003 103.64 98.4576 100.506 98.6048 99.4342C99.0592 96.1408 99.1168 92.7885 99.127 89.4681C99.1637 81.6167 98.8035 73.7684 98.048 65.9533C97.92 64.5977 97.7689 63.2435 97.5731 61.8944C97.4605 61.1264 97.3657 60.3033 97.1085 59.5609C96.5747 58.0249 94.1043 57.7152 92.7565 57.463C89.6141 56.8755 86.3936 56.6617 83.2051 56.5056C79.2013 56.3097 75.1885 56.2701 71.1808 56.3328C67.3408 56.3929 63.488 56.544 59.6544 56.8691C56.9664 57.0969 54.1849 57.3222 51.5763 58.0531C50.9107 58.2387 50.1171 58.4627 49.6115 58.967C49.1814 59.3958 49.1533 60.0857 49.0752 60.6553C48.7001 63.3894 48.5734 66.167 48.4352 68.9216C48.0128 77.0304 47.7952 85.1776 48.0333 93.2979C48.1126 96.0806 48.1446 98.9683 48.7232 101.704C48.8589 102.344 49.0291 103.126 49.5987 103.525C50.2003 103.948 51.0259 104.076 51.7337 104.189C54.6688 104.66 57.6934 104.662 60.6566 104.677C64.7923 104.699 68.9267 104.593 73.0598 104.456C80.201 104.219 87.3369 103.776 94.4806 103.578C95.1642 103.56 95.8566 103.525 96.5401 103.569C97.2621 103.615 97.2595 102.49 96.5389 102.444Z" fill="#112870"/>
<path d="M12.9574 42.624L44.0858 52.937H100.717C100.717 52.937 102.03 46.0928 70.432 36.5299C58.6406 32.9536 14.08 35.68 12.9574 42.624Z" fill="#75DDF9"/>
<path d="M43.2858 53.5603C41.3299 68.7129 40.5197 84.0435 41.0035 99.3177C41.1315 103.223 41.4413 107.192 42.9568 110.838C43.1616 111.332 43.9808 111.115 43.7696 110.614C42.4038 107.325 42.025 103.78 41.8816 100.252C41.7293 96.5209 41.7062 92.7808 41.7306 89.047C41.7783 81.4745 42.1197 73.9119 42.7546 66.359C43.1164 62.0838 43.5733 57.8171 44.1254 53.559C44.1946 53.0227 43.3498 53.0278 43.2806 53.559L43.2858 53.5603Z" fill="#112870"/>
<path d="M13.2288 42.4768L43.392 53.504C43.904 53.6909 44.1229 52.8755 43.616 52.6899L13.4528 41.6627C12.9408 41.4758 12.7219 42.2912 13.2288 42.4768Z" fill="#112870"/>
<path d="M43.799 53.5283L88.311 53.1443L100.765 53.0381C101.308 53.0381 101.309 52.1894 100.765 52.1945L56.2662 52.5785L43.799 52.6848C43.2563 52.6848 43.255 53.5334 43.799 53.5283Z" fill="#112870"/>
<path d="M13.321 94.473C13.3632 95.5023 13.7312 96.4916 14.3718 97.2984C15.0125 98.1051 15.8928 98.6876 16.8858 98.9619C17.4106 99.1027 17.6346 98.2899 17.1098 98.1478C16.2936 97.925 15.5691 97.4493 15.0402 96.7891C14.5113 96.1289 14.2051 95.318 14.1658 94.473C14.144 93.9315 13.3005 93.929 13.321 94.473Z" fill="#112870"/>
<path d="M15.7517 101.592C18.1146 102.952 20.7283 103.725 23.337 104.458C26.025 105.213 28.6157 106.071 31.1616 107.214C33.5936 108.303 35.9808 109.489 38.496 110.365C41.0726 111.261 43.7133 111.645 46.432 111.767C52.329 112.037 58.24 111.375 64.1344 111.255C70.3364 111.124 76.5363 110.956 82.7341 110.751C89.7818 110.519 96.8277 110.239 103.872 109.912C104.412 109.888 104.416 109.043 103.872 109.069C91.4816 109.642 79.0852 110.069 66.6829 110.349C63.7594 110.415 60.8397 110.477 57.9187 110.628C55.0413 110.783 52.1587 110.966 49.2787 110.976C46.4192 110.986 43.4906 110.888 40.7117 110.161C38.103 109.478 35.6467 108.342 33.2045 107.217C30.4755 105.962 27.7491 104.832 24.8576 104.004C21.888 103.168 18.871 102.414 16.1779 100.864C15.7056 100.593 15.2819 101.322 15.7517 101.594V101.592Z" fill="#112870"/>
<path d="M45.303 65.0483C47.1949 67.3203 50.8352 66.8697 52.1305 64.2189C52.448 63.5712 51.4778 63.0003 51.159 63.6505C50.1619 65.6985 47.5482 65.9942 46.0979 64.2534C45.6346 63.6966 44.8422 64.4953 45.303 65.0483Z" fill="#112870"/>
<path d="M45.2685 97.7229C47.4291 99.1181 50.3667 98.8185 52.233 97.0649C52.7629 96.5683 51.9654 95.7747 51.4381 96.2701C49.9264 97.6896 47.5686 97.8701 45.8355 96.7513C45.2262 96.3571 44.6618 97.3312 45.2685 97.7229Z" fill="#112870"/>
<path d="M37.4067 55.6646C39.2742 56.2201 39.1462 58.6009 39.0413 60.1369C38.9914 60.8601 40.1165 60.8563 40.1664 60.1369C40.311 58.0224 40.137 55.3024 37.705 54.5805C37.0099 54.3744 36.713 55.4598 37.4067 55.6646Z" fill="#112870"/>
<path d="M76.311 96.6221C82.2902 96.6221 87.1373 90.1595 87.1373 82.1875C87.1373 74.2155 82.2902 67.753 76.311 67.753C70.3319 67.753 65.4848 74.2155 65.4848 82.1875C65.4848 90.1595 70.3319 96.6221 76.311 96.6221Z" fill="#4081F4"/>
<path d="M89.9341 82.7507C89.9341 88.7808 86.2682 93.6704 81.7421 93.6704C77.216 93.6704 73.5501 88.7808 73.5501 82.7507C73.5501 76.7206 78.1146 71.8707 81.7715 71.8707C86.3002 71.8707 89.9341 76.7206 89.9341 82.7507Z" fill="#75DDF9"/>
<path d="M68.9562 72.7693L69.7037 73.4272C69.9251 73.6217 70.2848 73.6614 70.4999 73.4272C70.6957 73.2147 70.7354 72.8397 70.4999 72.6323L69.7523 71.9744C69.5309 71.7798 69.1712 71.7401 68.9562 71.9744C68.7603 72.1869 68.7206 72.5619 68.9562 72.7693Z" fill="#112870"/>
<path d="M67.767 77.7997H68.608C68.6841 77.8033 68.7602 77.7914 68.8316 77.7648C68.903 77.7382 68.9683 77.6973 69.0235 77.6447C69.0786 77.5921 69.1226 77.5289 69.1526 77.4588C69.1826 77.3888 69.198 77.3133 69.198 77.2371C69.198 77.1609 69.1826 77.0855 69.1526 77.0154C69.1226 76.9453 69.0786 76.8821 69.0235 76.8295C68.9683 76.7769 68.903 76.7361 68.8316 76.7094C68.7602 76.6828 68.6841 76.6709 68.608 76.6746H67.7645C67.6199 76.6815 67.4836 76.7437 67.3837 76.8485C67.2838 76.9532 67.2281 77.0924 67.2281 77.2371C67.2281 77.3818 67.2838 77.521 67.3837 77.6258C67.4836 77.7305 67.6199 77.7928 67.7645 77.7997H67.767Z" fill="#112870"/>
<path d="M67.4227 85.6819C67.7389 85.7691 68.0743 85.7561 68.3827 85.6448C68.6567 85.5411 68.8755 85.2608 68.7757 84.9536C68.6899 84.6861 68.3776 84.4416 68.0832 84.5606C68.0413 84.577 67.9986 84.5911 67.9552 84.6029C67.9266 84.6108 67.8976 84.6168 67.8682 84.6208C67.936 84.6131 67.9488 84.6105 67.9053 84.6131C67.8618 84.6157 67.8144 84.6131 67.7773 84.6131C67.7402 84.6131 67.7479 84.6131 67.8157 84.6131C67.7859 84.6081 67.7564 84.6013 67.7274 84.5926C67.5854 84.5591 67.436 84.5819 67.3106 84.6563C67.1851 84.7307 67.0934 84.8509 67.0548 84.9915C67.0161 85.1322 67.0335 85.2823 67.1034 85.4104C67.1732 85.5384 67.29 85.6344 67.4291 85.6781L67.4227 85.6819Z" fill="#112870"/>
<path d="M70.1069 91.5827L70.5754 91.3011C70.6423 91.2654 70.7013 91.2166 70.7488 91.1575C70.7964 91.0985 70.8315 91.0305 70.8522 90.9575C70.8728 90.8846 70.8785 90.8082 70.8689 90.733C70.8593 90.6578 70.8346 90.5853 70.7963 90.5198C70.7581 90.4544 70.707 90.3974 70.6461 90.3522C70.5853 90.3069 70.5159 90.2745 70.4422 90.2567C70.3685 90.2389 70.292 90.2362 70.2172 90.2488C70.1424 90.2613 70.0709 90.2888 70.0071 90.3296L69.5386 90.6112C69.4717 90.6469 69.4127 90.6957 69.3651 90.7547C69.3176 90.8138 69.2824 90.8818 69.2618 90.9548C69.2412 91.0277 69.2355 91.1041 69.2451 91.1793C69.2547 91.2545 69.2793 91.327 69.3176 91.3924C69.3559 91.4579 69.407 91.5149 69.4678 91.5601C69.5287 91.6053 69.598 91.6378 69.6718 91.6556C69.7455 91.6733 69.822 91.676 69.8968 91.6635C69.9715 91.651 70.043 91.6235 70.1069 91.5827Z" fill="#112870"/>
<path d="M74.7264 95.7235L75.1949 95.3485C75.3004 95.2428 75.3598 95.0997 75.36 94.9504C75.3597 94.8012 75.3002 94.6583 75.1946 94.553C75.089 94.4476 74.9459 94.3885 74.7968 94.3885C74.649 94.3958 74.5083 94.4542 74.3987 94.5536L73.9302 94.9273C73.8515 95.0061 73.798 95.1064 73.7762 95.2156C73.7545 95.3248 73.7657 95.438 73.8083 95.5409C73.8509 95.6438 73.923 95.7317 74.0156 95.7936C74.1081 95.8555 74.217 95.8886 74.3283 95.8886C74.4759 95.8803 74.6163 95.8221 74.7264 95.7235Z" fill="#112870"/>
<path d="M73.6934 92.224C75.1168 93.6781 76.9011 94.7008 78.9414 94.9312C80.7808 95.1398 82.6534 94.656 84.2483 93.751C88.023 91.6134 89.9968 87.552 90.1875 83.3203C90.3027 80.7923 89.7869 78.2157 88.5747 75.9846C87.3818 73.7894 85.495 72.3366 83.0528 71.7875C80.9485 71.3139 78.6419 71.4393 76.5171 71.7517C75.5661 71.8912 74.5856 72.151 73.8291 72.7667C72.9331 73.4899 72.3379 74.6867 71.872 75.7107C69.5258 80.8883 69.6371 87.8835 73.6986 92.2227C74.1939 92.7526 74.9888 91.9552 74.4934 91.4265C71.2217 87.9321 70.8096 82.3552 72.2048 77.9699C72.7795 76.1638 73.6614 73.6857 75.6608 73.0829C76.5325 72.8179 77.4528 72.7577 78.3488 72.6989C79.2448 72.64 80.1907 72.5709 81.1149 72.6336C83.3242 72.7731 85.5181 73.559 86.8749 75.3856C88.2317 77.2121 88.9229 79.5443 89.0509 81.8035C89.2685 85.6589 87.9885 89.5424 84.8781 91.9718C83.4291 93.1046 81.6333 93.8509 79.7773 93.8483C77.7178 93.8483 75.9014 92.8678 74.4845 91.4163C73.984 90.9094 73.1865 91.7056 73.6934 92.224Z" fill="#112870"/>
<path d="M72.3597 69.1776C72.3302 69.6055 72.3687 70.0353 72.4736 70.4512C72.6464 71.1539 73.7319 70.8569 73.5591 70.1529C73.4814 69.834 73.4563 69.5046 73.4848 69.1776C73.5078 68.8742 73.2096 68.6144 72.9229 68.6144C72.7744 68.6173 72.6329 68.6776 72.5279 68.7826C72.4229 68.8876 72.3626 69.0291 72.3597 69.1776Z" fill="#112870"/>
<path d="M77.7126 68.3699L77.5181 69.3056C77.4579 69.5923 77.6013 69.9264 77.911 69.9968C78.1926 70.0621 78.5382 69.9123 78.6022 69.6038L78.7981 68.6694C78.8582 68.3814 78.7136 68.0474 78.4051 67.977C78.1235 67.913 77.7779 68.0614 77.7126 68.3699Z" fill="#112870"/>
<path d="M80.9818 70.4V70.5869C80.9818 70.7362 81.0411 70.8795 81.1467 70.9851C81.2523 71.0907 81.3956 71.1501 81.545 71.1501C81.6933 71.1471 81.8347 71.0868 81.9395 70.9818C82.0443 70.8767 82.1043 70.7352 82.1069 70.5869V70.4C82.107 70.3261 82.0926 70.2529 82.0645 70.1846C82.0363 70.1162 81.9949 70.0541 81.9427 70.0018C81.8905 69.9495 81.8285 69.908 81.7603 69.8797C81.692 69.8514 81.6189 69.8368 81.545 69.8368C81.3964 69.8394 81.2547 69.8996 81.1496 70.0047C81.0446 70.1097 80.9844 70.2514 80.9818 70.4Z" fill="#112870"/>
<path d="M78.2643 97.3875C78.9888 97.3875 78.9901 96.2624 78.2643 96.2624C77.5386 96.2624 77.5398 97.3875 78.2643 97.3875Z" fill="#112870"/>
<path d="M75.4355 75.168C73.5073 78.253 72.7641 81.9329 73.344 85.5245C73.6192 87.2589 74.1799 89.1776 75.3216 90.5472C75.9347 91.2832 76.7296 91.8809 77.4899 92.4672C78.2195 93.0291 79.0055 93.5654 79.8835 93.8752C81.3043 94.3654 83.2576 94.2285 84.5965 93.5565C85.2442 93.2313 84.6746 92.2598 84.0295 92.5849C82.5651 93.3197 80.5735 93.1238 79.209 92.3033C78.227 91.7049 77.3192 90.9925 76.5043 90.1811C75.7363 89.4246 75.3037 88.4518 74.9683 87.4445C74.3337 85.5084 74.134 83.4563 74.3836 81.4342C74.6332 79.4122 75.3258 77.4701 76.4122 75.7465C76.7962 75.1321 75.8272 74.5677 75.4407 75.1782L75.4355 75.168Z" fill="#112870"/>
<path d="M88.2214 70.8697C86.1837 65.6102 80.5248 62.8288 75.0682 63.3318C70.784 63.7274 67.1667 66.185 64.7527 69.6794C59.4675 77.3286 59.3101 89.7587 66.3936 96.3929C68.9922 98.8159 72.4112 100.166 75.9642 100.173C79.5171 100.137 82.9217 98.7438 85.4797 96.2777C86.0019 95.7747 85.2058 94.9786 84.6835 95.4816C80.256 99.7414 73.344 100.165 68.3738 96.5786C64.2458 93.5962 62.2733 88.2982 62.1018 83.3485C61.8458 75.8925 65.4106 66.6726 73.3875 64.7411C78.72 63.4496 85.0662 65.824 87.136 71.168C87.392 71.8362 88.4838 71.552 88.2214 70.8685V70.8697Z" fill="#112870"/>
<path d="M55.648 111.263C55.3952 112.79 55.0294 114.296 54.5536 115.768C54.3138 116.505 54.0467 117.23 53.7523 117.944C53.472 118.627 53.1866 119.608 52.6886 120.157C52.1907 120.707 50.9594 120.589 50.2669 120.591C49.4374 120.591 48.6029 120.57 47.7773 120.557L42.6573 120.474C41.9328 120.461 41.9328 121.586 42.6573 121.599L48.3968 121.691C49.3056 121.706 50.2208 121.747 51.1296 121.691C51.8643 121.649 52.7514 121.623 53.3299 121.108C53.9085 120.594 54.1606 119.788 54.4563 119.121C54.8045 118.333 55.1245 117.533 55.4099 116.722C55.9964 115.041 56.4375 113.313 56.7283 111.557C56.8474 110.849 55.7632 110.545 55.6429 111.258L55.648 111.263Z" fill="#112870"/>
<path d="M15.9309 112.791C17.3184 113.677 19.2589 113.528 20.8371 113.582C22.7998 113.649 24.7625 113.644 26.7251 113.564C27.4726 113.533 28.3546 113.588 29.0394 113.23C29.6384 112.916 29.9674 112.353 30.2003 111.741C30.8608 110.003 31.3651 108.189 31.9398 106.422C32.1638 105.732 31.0784 105.436 30.8544 106.124C30.3492 107.679 29.8432 109.234 29.3363 110.789C29.1456 111.374 28.9869 112.09 28.3328 112.302C27.6211 112.532 26.7123 112.443 25.9738 112.466C24.3456 112.515 22.7166 112.515 21.0867 112.466C20.2509 112.44 19.4163 112.403 18.5818 112.348C17.8458 112.3 17.1328 112.22 16.4979 111.82C15.8861 111.428 15.3203 112.402 15.9296 112.791H15.9309Z" fill="#112870"/>
<path d="M83.4931 120.803C85.0215 121.933 86.9799 121.955 88.8 121.865C89.8586 121.814 90.9159 121.754 91.9744 121.697C92.9984 121.644 94.1338 121.715 95.1207 121.418C96.9472 120.869 97.4861 118.584 98.0941 117.012C98.9184 114.879 99.6369 112.713 100.25 110.513C100.444 109.814 99.3536 109.516 99.1642 110.213C98.6368 112.099 98.0344 113.961 97.3568 115.799C97.0163 116.716 96.6579 117.628 96.2778 118.529C95.9283 119.36 95.5738 120.164 94.6138 120.385C93.696 120.598 92.6618 120.535 91.7235 120.585C90.7469 120.636 89.7715 120.692 88.7962 120.74C87.1603 120.818 85.4336 120.849 84.0602 119.831C83.4778 119.401 82.9159 120.376 83.4919 120.803H83.4931Z" fill="#112870"/>
<path d="M81.4003 89.5347C81.4003 89.5347 81.2058 85.088 86.7763 85.1827C91.2205 85.2582 99.3997 90.6419 101.77 83.9347C104.141 77.2275 93.0662 75.1027 88.128 76.4608C83.1898 77.8189 77.824 77.6819 76.8179 73.4592C75.8118 69.2365 84.8243 69.1072 85.6026 67.1872C86.3539 65.1251 90.5075 62.9939 94.4435 63.1091C96.2086 61.1405 101.075 59.0131 108.183 63.5187C115.291 68.0243 124.969 72.96 124.8 74.7008C124.631 76.4416 114.451 101.837 110.354 111.853C102.716 106.811 82.3718 97.7485 81.4003 89.5347Z" fill="#FC92C3"/>
<path d="M77.856 71.4726C85.1648 67.6685 94.112 65.3171 101.892 69.2211C103.799 70.1682 105.497 71.4894 106.884 73.1059C107.237 73.5194 107.831 72.9203 107.48 72.5094C104.92 69.5053 101.286 67.607 97.4515 66.8096C93.1712 65.9136 88.7411 66.4256 84.5965 67.7171C82.1227 68.5129 79.7241 69.5255 77.4285 70.743C76.9459 70.999 77.3721 71.7235 77.8534 71.4726H77.856Z" fill="#112870"/>
<path d="M94.5382 63.4125C99.6499 63.2626 104.62 65.1017 108.403 68.5427C108.804 68.9088 109.402 68.3136 109.001 67.9462C105.057 64.3497 99.8724 62.4227 94.537 62.5702C93.9955 62.5869 93.993 63.4317 94.537 63.415L94.5382 63.4125Z" fill="#112870"/>
<path d="M84.7002 88.9165C85.8906 88.3379 86.8391 89.7805 87.3267 90.6394C87.8528 91.5661 88.1741 92.7962 87.2743 93.609C86.8711 93.9738 87.4688 94.569 87.8707 94.2054C89.1264 93.0714 88.7207 91.3075 87.9437 90.025C87.1667 88.7424 85.8765 87.4099 84.2752 88.192C83.7863 88.4288 84.2138 89.1571 84.7002 88.9203V88.9165Z" fill="white"/>
<path d="M113.244 53.0509C113.293 55.7107 113.342 58.3714 113.391 61.033C113.403 61.6397 113.414 62.2468 113.425 62.8544V63.3062C113.425 63.3882 113.405 63.6301 113.446 63.3293L114.272 62.9926L114.528 63.3293C114.569 63.5763 114.541 63.4227 114.541 63.3126C114.541 63.1744 114.532 63.0349 114.528 62.8954C114.513 62.3945 114.498 61.8936 114.483 61.3926C114.43 59.686 114.375 57.9793 114.318 56.2726C114.164 51.8003 113.99 47.3267 113.727 42.8582C113.606 40.8346 113.48 38.8083 113.251 36.7936C113.222 36.5517 113.096 36.3123 112.837 36.2509C97.3952 32.6144 81.4323 33.3555 65.7331 31.9578C61.7971 31.607 57.8714 31.1181 53.9866 30.3846C50.2554 29.6794 46.4026 28.8755 42.9402 27.2691C39.8515 25.8342 37.047 23.6211 35.584 20.48C34.9069 19.031 34.56 17.3747 34.7443 15.776C34.9683 13.8765 36.0243 12.4992 37.641 11.552C44.1088 7.73248 52.1613 7.53408 59.456 7.328C67.7333 7.09419 76.0107 7.26486 84.288 7.84C92.3712 8.39808 100.497 9.248 108.48 10.6867C111.798 11.2858 115.283 12.1997 117.751 14.6419C120.038 16.9062 121.155 20.1293 121.377 23.2909C121.633 27.0093 120.673 30.6714 119.407 34.135C118.442 36.7757 117.231 39.2909 116.526 42.0186C115.213 47.0694 114.381 52.2765 113.697 57.4464C113.578 58.3488 113.467 59.2512 113.38 60.1562C113.309 60.8755 114.436 60.8717 114.505 60.1562C114.996 55.0874 115.878 50.0109 116.965 45.0394C117.468 42.7354 118.049 40.4877 118.956 38.3117C120.492 34.6163 121.951 30.8442 122.412 26.8403C122.796 23.552 122.374 20.1165 120.895 17.1302C119.391 14.0941 116.783 12.0192 113.64 10.8506C110.08 9.52192 106.147 9.13664 102.409 8.61056C98.2157 8.02091 94.0105 7.53366 89.7933 7.1488C81.3368 6.3808 72.8555 6.0352 64.3494 6.112C60.2662 6.14784 56.1664 6.22592 52.0947 6.56512C48.3021 6.88 44.4902 7.47264 40.9075 8.79872C39.2563 9.41056 37.5347 10.1261 36.1229 11.1949C35.4518 11.6997 34.8882 12.3333 34.4649 13.0586C34.0416 13.7839 33.7671 14.5863 33.6576 15.4189C33.1725 18.7213 34.6816 21.9917 36.8896 24.3789C39.3651 27.0541 42.7533 28.6323 46.1862 29.6909C49.9763 30.8582 53.9162 31.593 57.8342 32.169C65.9149 33.3594 74.0903 33.6858 82.2349 34.0442C90.3795 34.4026 98.5907 34.7891 106.66 36.1549C108.634 36.4885 110.596 36.8845 112.548 37.3427L112.136 36.8C112.596 40.8525 112.744 44.9485 112.923 49.0214C113.102 53.0944 113.239 57.1571 113.362 61.225C113.38 61.8035 113.397 62.3812 113.414 62.9581C113.425 63.2742 113.364 63.8131 113.713 63.9706C113.998 64.0986 114.481 64.0294 114.538 63.6352C114.648 62.8237 114.538 61.943 114.519 61.129C114.47 58.4384 114.42 55.7478 114.371 53.0573C114.358 52.3341 113.233 52.3315 113.245 53.0573L113.244 53.0509Z" fill="#112870"/>
<path d="M53.792 12.032L54.1287 24.7693C54.1671 26.2144 56.4173 26.2195 56.3789 24.7693L56.0423 12.032C56.0039 10.5869 53.7536 10.5817 53.792 12.032Z" fill="#A89FFF"/>
<path d="M48.2163 15.0272L59.6723 23.8515C60.1536 24.2227 60.9318 23.9258 61.2083 23.4483C61.5488 22.8672 61.2877 22.281 60.8051 21.9123L49.3491 13.088C48.8666 12.7168 48.0883 13.0138 47.8131 13.4912C47.4739 14.0723 47.7338 14.6586 48.2176 15.0272H48.2163Z" fill="#A89FFF"/>
<path d="M50.6266 22.8352C54.2704 20.5562 57.641 17.8668 60.672 14.8198C61.696 13.7958 60.1037 12.1997 59.081 13.2288C56.1879 16.142 52.9698 18.7133 49.4899 20.8922C48.265 21.6602 49.3927 23.6058 50.6253 22.8352H50.6266Z" fill="#A89FFF"/>
<path d="M75.5443 12.4966L75.881 25.2326C75.9194 26.6778 78.1696 26.6842 78.1312 25.2326L77.7946 12.4966C77.7562 11.0515 75.5059 11.0451 75.5443 12.4966Z" fill="#A89FFF"/>
<path d="M69.9686 15.4957L81.4246 24.32C81.9059 24.6912 82.6842 24.3929 82.9606 23.9155C83.3011 23.3357 83.04 22.7481 82.5574 22.3795L71.1014 13.5475C70.6189 13.1763 69.8406 13.4733 69.5654 13.9507C69.2262 14.5318 69.4861 15.1181 69.9699 15.4867L69.9686 15.4957Z" fill="#A89FFF"/>
<path d="M72.3789 23.3037C76.0255 21.0252 79.3986 18.3358 82.432 15.2883C83.456 14.2643 81.8637 12.6681 80.841 13.6973C77.9479 16.6105 74.7298 19.1818 71.2499 21.3606C70.025 22.1286 71.1527 24.0742 72.3853 23.3037H72.3789Z" fill="#A89FFF"/>
<path d="M95.7965 14.464L96.1331 27.2C96.1715 28.6464 98.4218 28.6515 98.3834 27.2L98.048 14.464C98.0096 13.0189 95.7594 13.0125 95.7978 14.464H95.7965Z" fill="#A89FFF"/>
<path d="M90.2195 17.4643L101.677 26.2899C102.158 26.6611 102.936 26.3642 103.213 25.8867C103.553 25.3056 103.292 24.7194 102.81 24.3507L91.3536 15.5251C90.871 15.1539 90.0928 15.4522 89.8176 15.9296C89.4784 16.5094 89.7382 17.097 90.2208 17.4656L90.2195 17.4643Z" fill="#A89FFF"/>
<path d="M92.6311 25.2723C96.2757 22.9938 99.6467 20.3044 102.678 17.2569C103.702 16.2329 102.108 14.6368 101.085 15.6659C98.1934 18.5797 94.9757 21.1511 91.4957 23.3293C90.2707 24.0973 91.3984 26.0429 92.6311 25.2723Z" fill="#A89FFF"/>
<path d="M116.282 19.721C118.615 23.6083 118.726 28.6042 116.549 32.5837C116.201 33.2237 117.172 33.7882 117.521 33.152C119.889 28.8243 119.794 23.3856 117.253 19.1527C116.882 18.5319 115.908 19.0976 116.282 19.721Z" fill="#112870"/>
<path d="M7.53025 24.201L11.904 29.2672C12.3776 29.8163 13.1699 29.0112 12.6989 28.4723L8.32641 23.4061C7.85281 22.857 7.06049 23.6557 7.53025 24.201Z" fill="#112870"/>
<path d="M3.2 38.8672H6.912C7.63648 38.8672 7.63776 37.7421 6.912 37.7421H3.2C2.47552 37.7421 2.47424 38.8672 3.2 38.8672Z" fill="#112870"/>
<path d="M3.94625 53.2045C4.8386 52.2028 5.942 51.4116 7.17697 50.8877C7.84001 50.6035 7.26785 49.6346 6.60865 49.9162C5.28835 50.4843 4.10865 51.335 3.15265 52.4083C2.67137 52.9472 3.46497 53.7447 3.94881 53.2045H3.94625Z" fill="#112870"/>
</svg>
