<svg width="128" height="128" viewBox="0 0 128 128" fill="none" xmlns="http://www.w3.org/2000/svg">
<path d="M12.2458 21.8982C10.3276 36.3833 10.0386 51.0378 11.3843 65.5872C11.9142 71.2358 12.1037 78.313 17.024 82.0992C21.4656 85.5168 27.6621 85.1942 32.9562 85.1494L77.184 84.7654L99.4253 84.576C102.516 84.5491 105.834 84.6541 108.641 83.1424C111.016 81.8624 112.657 79.5584 113.596 77.0816C114.781 73.952 114.772 70.5165 114.573 67.2256C114.373 63.9347 114.124 60.672 113.943 57.3914C113.572 50.6278 113.295 43.8605 112.911 37.097C112.721 33.7357 112.503 30.3757 112.23 27.0195C112.122 25.6704 111.962 24.375 111.451 23.1104C110.769 21.414 109.653 19.9266 108.216 18.7973C106.778 17.6679 105.068 16.9364 103.259 16.6758C101.743 16.4544 100.187 16.3878 98.6649 16.2675C91.0054 15.6625 83.3374 15.2009 75.6608 14.8826C66.784 14.4986 57.8944 14.2874 49.0074 14.3834C41.28 14.4666 33.5002 14.7123 25.8394 15.7837C23.1142 16.1677 20.3699 16.6426 17.751 17.504C16.1037 18.0442 14.24 18.7571 13.0778 20.1101C12.6502 20.5805 12.3668 21.1639 12.2611 21.7907C12.1894 22.3027 12.9651 22.5165 13.0368 22.0045C13.2224 20.6835 14.4563 19.8285 15.6275 19.2282C17.641 18.1952 19.9181 17.6602 22.121 17.2186C28.9459 15.849 35.9962 15.5213 42.9363 15.3114C51.552 15.049 60.1792 15.159 68.7923 15.4317C76.8043 15.6877 84.8094 16.0909 92.8077 16.6413C95.936 16.8572 99.0622 17.0995 102.186 17.3683C104.632 17.5834 106.89 18.4858 108.634 20.2522C109.506 21.1342 110.199 22.1776 110.674 23.3242C111.194 24.5914 111.334 25.8957 111.442 27.2486C112.489 40.2701 112.809 53.3376 113.71 66.3693C114.106 72.1037 113.907 79.753 107.863 82.6368C104.864 84.0678 101.248 83.7581 98.0185 83.7888L87.1539 83.8822L44.2048 84.2483L33.4669 84.3405C30.5715 84.3648 27.657 84.4518 24.777 84.0934C22.103 83.7594 19.3421 82.9977 17.2339 81.2442C14.9632 79.3536 13.8483 76.6016 13.2454 73.7779C12.567 70.5984 12.3315 67.3024 12.0538 64.0691C11.75 60.538 11.5439 56.9997 11.4355 53.4541C11.2218 46.3839 11.3953 39.3072 11.9552 32.256C12.23 28.7923 12.5952 25.3363 13.0509 21.888C13.1174 21.385 12.3123 21.3901 12.2458 21.8982Z" fill="#112870"/>
<path d="M13.3594 29.8982C25.9597 29.7754 38.5604 29.7451 51.1616 29.8074C63.7628 29.8696 76.3622 30.0258 88.96 30.2758C96.0247 30.4158 103.089 30.5864 110.152 30.7878C110.664 30.8019 110.664 29.9968 110.152 29.9827C97.5565 29.6294 84.9592 29.3692 72.3597 29.2019C59.7602 29.0347 47.1603 28.9587 34.56 28.9741C27.4935 28.9843 20.4271 29.024 13.3606 29.0931C12.8422 29.0931 12.841 29.9034 13.3606 29.8982H13.3594Z" fill="#FF7348"/>
<path d="M17.975 22.2566V22.0506C17.982 21.899 17.9446 21.7486 17.8675 21.6179C17.8166 21.4766 17.7281 21.3518 17.6115 21.257C17.4991 21.1477 17.3615 21.0677 17.2109 21.024C17.0611 20.9533 16.8963 20.9204 16.7309 20.928C16.4072 20.9272 16.0942 21.0442 15.8502 21.257C15.7394 21.358 15.65 21.4803 15.5876 21.6167C15.5251 21.7531 15.4908 21.9006 15.4867 22.0506V22.2566C15.479 22.4081 15.5159 22.5586 15.593 22.6893C15.6452 22.8303 15.7334 22.9552 15.849 23.0515C15.9635 23.1611 16.1033 23.2407 16.256 23.2832C16.4059 23.3537 16.5705 23.387 16.736 23.3805C17.0597 23.3809 17.3725 23.264 17.6166 23.0515C17.7278 22.9504 17.8174 22.8278 17.88 22.6912C17.9427 22.5547 17.9772 22.4068 17.9814 22.2566H17.975Z" fill="#4081F4"/>
<path d="M22.4282 23.3805C24.0294 23.3805 24.032 21.1328 22.4282 21.1328C20.8243 21.1328 20.823 23.3805 22.4282 23.3805Z" fill="#4081F4"/>
<path d="M27.4419 23.3805C29.0445 23.3805 29.047 21.1328 27.4419 21.1328C25.8368 21.1328 25.8381 23.3805 27.4419 23.3805Z" fill="#4081F4"/>
<path d="M94.967 24.375H97.9827C98.4947 24.375 98.4947 23.5699 97.9827 23.5699H94.967C94.455 23.5699 94.4473 24.375 94.967 24.375Z" fill="#A89FFF"/>
<path d="M41.1328 49.9021C41.2897 49.2094 41.7142 48.607 42.3138 48.2264C42.9134 47.8458 43.6393 47.7179 44.3328 47.8707L56.7283 50.6483C57.3893 50.8356 57.9535 51.2689 58.305 51.8592C58.6565 52.4494 58.7686 53.1519 58.6184 53.8223C58.4682 54.4926 58.067 55.0801 57.4972 55.4639C56.9274 55.8477 56.2323 55.9988 55.5546 55.8861L43.159 53.1085C42.466 52.9505 41.8637 52.5245 41.4839 51.9236C41.1042 51.3227 40.978 50.5958 41.1328 49.9021Z" fill="#A89FFF"/>
<path d="M26.7366 44.105C27.4529 42.0685 28.9477 40.3993 30.893 39.4635C32.8383 38.5276 35.0754 38.4016 37.1136 39.113L42.9376 41.161C43.9689 41.4967 44.9227 42.0351 45.743 42.7446C46.5633 43.4541 47.2336 44.3203 47.7144 45.2924C48.1953 46.2646 48.4771 47.323 48.5432 48.4055C48.6093 49.4881 48.4585 50.5729 48.0995 51.5963C47.7405 52.6198 47.1807 53.5611 46.4528 54.3652C45.725 55.1692 44.8438 55.8198 43.8611 56.2785C42.8783 56.7373 41.8138 56.9951 40.73 57.0367C39.6463 57.0783 38.5651 56.903 37.5501 56.521L31.7248 54.4794C29.6897 53.7623 28.0218 52.2676 27.0868 50.323C26.1518 48.3783 26.0259 46.1423 26.7366 44.105ZM42.8646 49.76C43.1074 49.0659 43.0649 48.3039 42.7465 47.6411C42.428 46.9783 41.8597 46.4689 41.1661 46.2246L35.3408 44.1766C34.6509 43.9499 33.8996 44.0027 33.2483 44.3237C32.5969 44.6448 32.0974 45.2085 31.8571 45.8937C31.6168 46.579 31.6548 47.3312 31.9629 47.9888C32.2711 48.6463 32.8249 49.1568 33.5053 49.4106L39.3306 51.4586C40.024 51.7001 40.7849 51.657 41.4466 51.3386C42.1083 51.0202 42.6168 50.4526 42.8608 49.76H42.8646Z" fill="#A89FFF"/>
<path d="M3.20895 43.1757C3.31182 41.02 4.26542 38.993 5.86062 37.5394C7.45583 36.0858 9.56242 35.3241 11.7184 35.4215L17.8842 35.712C19.9924 35.8766 21.954 36.8551 23.3535 38.4404C24.753 40.0258 25.4808 42.0935 25.3826 44.2059C25.2845 46.3183 24.3682 48.3097 22.8277 49.7584C21.2872 51.2072 19.2434 51.9996 17.129 51.968L10.9632 51.6864C8.80724 51.5835 6.7801 50.6298 5.32643 49.0343C3.87276 47.4388 3.11126 45.3319 3.20895 43.1757ZM20.2765 43.9693C20.3099 43.2349 20.0506 42.5172 19.5556 41.9737C19.0605 41.4302 18.3701 41.1053 17.6358 41.0701L11.4701 40.7834C10.7412 40.7594 10.0322 41.0234 9.49657 41.5183C8.96093 42.0132 8.64174 42.6991 8.60808 43.4276C8.57442 44.1561 8.82901 44.8685 9.31674 45.4107C9.80447 45.9529 10.4861 46.2812 11.2141 46.3245L17.3811 46.6112C18.1151 46.6435 18.8319 46.3836 19.3746 45.8884C19.9173 45.3932 20.2416 44.7031 20.2765 43.9693Z" fill="#A89FFF"/>
<path d="M64.8218 68.6413L59.4957 67.968C59.6903 66.432 59.9783 64.7936 60.2842 63.0605C60.8192 60.0205 61.3735 56.8755 61.4362 54.1261C61.4912 51.5008 61.0727 49.6615 60.1895 48.6605C58.9491 47.2525 56.5171 47.3728 55.7184 47.4125C53.5872 47.5162 51.8694 48.4147 50.4704 50.1594C49.207 51.7325 48.2138 53.9597 47.5175 56.7808C46.2515 61.9008 46.4589 67.1053 46.4615 67.1578L41.0995 67.3959C41.088 67.1565 40.8525 61.4656 42.2797 55.6032C43.1578 51.9949 44.4928 49.0496 46.2477 46.8467C48.6362 43.8464 51.7351 42.2387 55.4637 42.0506C59.319 41.8624 62.2669 42.8915 64.2227 45.1111C68.1152 49.536 66.7635 57.216 65.5693 64C65.28 65.664 64.9997 67.232 64.8218 68.6413Z" fill="#112870"/>
<path d="M64.64 96.8422C62.7558 100.401 35.863 97.856 34.2656 94.2349C32.6682 90.6137 34.688 67.1065 36.9203 63.3421C39.1526 59.5776 64.7322 62.0685 67.2947 65.9494C69.8573 69.8304 66.5267 93.2838 64.64 96.8422Z" fill="#F9CE46"/>
<path d="M53.376 81.9021C53.3479 81.472 53.3978 79.7978 53.3607 78.3603C54.1398 77.9381 54.761 77.2747 55.1311 76.4695C55.5012 75.6642 55.6001 74.7607 55.4131 73.8945C55.2261 73.0283 54.7632 72.2461 54.0938 71.6653C53.4245 71.0845 52.5849 70.7364 51.7009 70.6734C50.817 70.6103 49.9364 70.8356 49.1914 71.3154C48.4464 71.7953 47.8771 72.5038 47.569 73.3347C47.2608 74.1656 47.2304 75.074 47.4824 75.9236C47.7344 76.7732 48.2551 77.5182 48.9664 78.0467C48.6989 79.3267 48.5082 80.6464 48.2535 81.8957C48.0832 82.7341 46.5651 87.1706 47.0938 88.2176C47.1184 88.276 47.1578 88.3269 47.2081 88.3655C47.2583 88.4041 47.3177 88.429 47.3805 88.4377C49.1034 88.6468 50.8327 88.7885 52.5683 88.8627C52.832 88.873 53.1111 88.8781 53.3363 88.7347C53.7703 88.4518 53.7856 87.7901 53.7459 87.2474C53.6218 85.463 53.4899 83.6838 53.376 81.9021Z" fill="#112870"/>
<path d="M117.76 90.4422C117.76 90.4422 105.91 69.2199 98.1094 65.0816C91.2461 61.5079 86.9913 59.6979 84.6694 63.6941C82.3475 67.6902 90.496 71.6966 90.496 71.6966C90.496 71.6966 80.64 75.2896 78.336 87.5904C77.8598 94.048 93.184 112.979 93.184 112.979L117.76 90.4422Z" fill="#FC92C3"/>
<path d="M82.2246 73.6C82.2246 73.6 78.2566 73.3978 77.728 78.1146C77.1994 82.8314 83.5046 83.8976 85.0816 80.5389C86.6586 77.1802 84.1075 74.2131 82.2246 73.6Z" fill="#FC92C3"/>
<path d="M90.9376 71.808C90.9376 71.808 85.5885 65.0765 82.2861 68.6886C78.9837 72.3008 82.4845 77.7459 86.3142 77.0176C90.144 76.2893 91.479 73.2058 90.9376 71.808Z" fill="#FC92C3"/>
<path d="M79.0093 80.5504C79.0093 80.5504 76.2086 80.2688 75.4099 83.8298C74.6112 87.3907 78.5702 90.336 80.8614 89.1443C83.1526 87.9527 84.4224 83.5559 82.7136 82.025C81.691 81.1126 80.3792 80.5904 79.0093 80.5504Z" fill="#FC92C3"/>
<path d="M80.9024 74.112C81.7577 75.62 83.1705 76.7322 84.8371 77.2096C85.3363 77.353 85.5488 76.5696 85.0522 76.4326C83.5856 76.0145 82.3436 75.0342 81.5962 73.705C81.3402 73.2544 80.6451 73.6602 80.9011 74.112H80.9024Z" fill="#112870"/>
<path d="M77.8688 80.6976C79.2154 82.8185 82.761 84.0013 84.6528 81.9379C85.0035 81.5539 84.4352 80.9856 84.0845 81.3683C82.5575 83.0323 79.6403 81.9891 78.5639 80.2918C78.2861 79.8553 77.5898 80.2585 77.8675 80.6976H77.8688Z" fill="#112870"/>
<path d="M75.1078 86.3181C75.4995 87.3101 76.2509 87.9821 77.0957 88.6003C77.9405 89.2185 78.8954 89.728 79.9782 89.664C80.457 89.634 80.9246 89.5062 81.352 89.2885C81.7795 89.0707 82.1577 88.7676 82.4634 88.3979C82.769 88.0281 82.9956 87.5997 83.1291 87.1389C83.2627 86.6781 83.3003 86.1949 83.2397 85.719C83.1757 85.207 82.3693 85.207 82.4346 85.719C82.6394 87.3561 81.4912 88.8537 79.7888 88.8653C78.9594 88.8653 78.2387 88.4352 77.5872 87.9693C76.9024 87.4777 76.2022 86.912 75.8848 86.1069C75.6966 85.6307 74.9171 85.8381 75.1078 86.3206V86.3181Z" fill="#112870"/>
<path d="M81.6141 80.2931C81.726 80.0253 81.9144 79.7964 82.1557 79.6352C82.3971 79.474 82.6807 79.3876 82.9709 79.3869C83.4829 79.3869 83.4829 78.5779 82.9709 78.5817C82.5058 78.587 82.0532 78.7328 81.6726 79.0001C81.292 79.2674 81.0012 79.6436 80.8384 80.0793C80.649 80.5619 81.4272 80.7705 81.6141 80.2931Z" fill="white"/>
<path d="M79.232 87.0861C79.2581 86.8494 79.3628 86.6283 79.5294 86.4582C79.6961 86.2881 79.9149 86.1788 80.151 86.1478C80.663 86.0634 80.4454 85.2877 79.9373 85.3709C79.0938 85.5104 78.4909 86.2528 78.4269 87.0861C78.3872 87.5981 79.1949 87.5981 79.232 87.0861Z" fill="white"/>
<path d="M84.681 73.6269C84.7513 73.2278 84.9318 72.8563 85.2019 72.5542C85.5501 72.1702 84.983 71.6019 84.6336 71.9859C84.2627 72.3846 84.0105 72.8789 83.9053 73.4131C83.8093 73.9251 84.585 74.1363 84.681 73.6269Z" fill="white"/>
<path d="M90.8621 71.4074C89.0035 70.4845 87.1411 69.28 85.7421 67.7274C84.2355 66.0544 84.4352 63.497 86.3232 62.1978C86.7469 61.9059 86.345 61.2083 85.9174 61.5027C84.023 62.8058 83.328 65.3197 84.48 67.3638C85.0701 68.4083 86.0851 69.2173 87.0157 69.943C88.0874 70.7762 89.24 71.4996 90.4563 72.1024C90.9197 72.3315 91.328 71.6378 90.8634 71.4074H90.8621Z" fill="#112870"/>
<path d="M63.561 75.1731L63.5277 85.4131C63.5213 87.2704 62.4281 88.7693 61.0867 88.7616H60.6835C59.3408 88.7526 58.2579 87.2397 58.2643 85.3811L58.2976 75.1411C58.304 73.2838 59.3971 71.7837 60.7385 71.7926H61.143C62.4845 71.808 63.5674 73.3158 63.561 75.1731Z" fill="#75DDF9"/>
<path d="M73.9149 75.264L73.8906 82.4576C73.8906 84.3302 72.7834 85.8419 71.4304 85.8342H70.9798C69.6269 85.8266 68.535 84.2982 68.5478 82.4282L68.5722 75.2333C68.5786 73.3606 69.6794 71.849 71.0323 71.8579H71.4829C72.832 71.8682 73.9213 73.3939 73.9149 75.264Z" fill="#75DDF9"/>
<path d="M73.911 76.3302V76.6182C73.9021 79.0784 72.4544 81.0637 70.6777 81.0534L62.0147 80.9984C60.2368 80.9869 58.8032 78.9824 58.8147 76.5184V76.2304C58.8224 73.7702 60.2701 71.7849 62.048 71.7965L70.711 71.8502C72.4851 71.8656 73.92 73.8701 73.911 76.3302Z" fill="#75DDF9"/>
<path d="M112.328 74.3757C112.328 75.7965 113.197 76.3302 111.991 76.3251L54.9811 76.2739C53.7754 76.2739 52.8051 75.1117 52.8051 73.6896C52.8051 72.2675 53.7946 71.1206 55.0003 71.1296L111.647 71.2576C112.858 71.2627 112.334 72.96 112.328 74.3757Z" fill="#75DDF9"/>
<path d="M57.6461 75.1488C57.4976 77.9366 57.5744 80.7667 57.6973 83.5546C57.7741 85.28 57.9725 87.3946 59.3395 88.6259C60.5594 89.7293 62.0096 89.1264 62.8301 87.8874C64.1318 85.9187 63.8208 83.3242 63.5738 81.1034L63.1705 81.5053L67.0554 81.2659C67.2499 81.2544 67.6954 81.1379 67.831 81.2851C67.9117 81.3721 67.831 82.0019 67.831 82.1389C67.8578 82.6757 67.9437 83.208 68.087 83.7261C68.5632 85.4003 69.9853 87.0208 71.849 86.1658C72.6963 85.7818 73.3274 85.0445 73.8266 84.2778C74.4 83.3971 74.5114 82.4973 74.4973 81.4618C74.4755 79.7555 74.2618 78.0544 74.2797 76.3494C74.2797 75.8374 73.4797 75.8298 73.4746 76.3494C73.4579 77.9136 73.6294 79.4778 73.6819 81.0406C73.7126 81.9712 73.7382 82.8813 73.2365 83.7056C72.7782 84.4595 72.1229 85.2851 71.2371 85.5398C70.2323 85.8291 69.4899 85.0278 69.1046 84.1818C68.8799 83.6697 68.7349 83.1262 68.6746 82.5702C68.617 82.0826 68.7001 81.5706 68.6131 81.0893C68.4467 80.1818 67.4982 80.4326 66.8109 80.4749L63.1693 80.6989C62.9709 80.7117 62.7418 80.8742 62.7674 81.1021C63.0054 83.232 63.4483 86.1517 61.815 87.8784C61.047 88.6925 60.119 88.4608 59.4957 87.5853C58.8326 86.6547 58.6394 85.4374 58.5485 84.3264C58.4205 82.8032 58.4294 81.2646 58.4115 79.7376C58.3936 78.2106 58.368 76.6656 58.4499 75.1411C58.4768 74.6291 57.6717 74.6291 57.6448 75.1411L57.6461 75.1488Z" fill="#112870"/>
<path d="M98.2221 81.335C98.2221 81.335 92.4467 69.1648 87.6083 71.808C82.7699 74.4512 86.9875 84.992 87.4099 86.3181C86.3053 87.3728 81.481 94.8672 84.7347 101.015C87.9885 107.163 93.1827 112.984 93.1827 112.984C93.1827 112.984 114.476 95.2077 117.76 90.4422C113.633 82.9811 109.034 76.3558 98.2221 81.335Z" fill="#FC92C3"/>
<path d="M84.48 92.6579C85.0053 91.328 85.6394 90.0437 86.3757 88.8179C86.7042 88.2718 87.0528 87.7376 87.4214 87.2154C87.7466 86.7546 88.0615 86.3872 87.8835 85.7984C87.6928 85.1802 87.3792 84.585 87.1514 83.9782C86.8877 83.273 86.6394 82.5587 86.4423 81.8342C86.0161 80.3979 85.7937 78.9088 85.7818 77.4106C85.792 75.0451 86.9786 70.5754 90.2618 72.1626C91.4816 72.7526 92.3789 73.9277 93.2519 74.9286C94.2515 76.073 95.2167 77.2493 96.1357 78.4589C96.5897 79.022 97.0144 79.6082 97.408 80.215C97.6563 80.6246 97.8855 81.1546 98.3194 81.408C99.1936 81.92 100.383 81.1763 101.094 80.6848C101.518 80.393 101.116 79.6941 100.689 79.9898C100.299 80.2816 99.8672 80.5137 99.4087 80.6784C99.0925 80.7757 98.8595 80.8205 98.601 80.5926C98.3821 80.3981 98.2592 80.0576 98.1082 79.8093C97.4118 78.6573 96.5107 77.6013 95.6762 76.5568C94.7379 75.3894 93.769 74.24 92.7475 73.143C91.8938 72.2266 90.8967 71.351 89.6269 71.1066C86.9709 70.6022 85.5117 73.2928 85.1469 75.5277C84.6848 78.3437 85.3107 81.2134 86.2682 83.8566C86.4166 84.2675 86.5741 84.6733 86.7379 85.0778C86.8659 85.408 87.2205 85.9622 87.0925 86.3206C86.9875 86.6138 86.665 86.9171 86.4858 87.1795C86.275 87.4893 86.0706 87.8037 85.8727 88.1229C85.0251 89.4961 84.3021 90.9422 83.712 92.4441C83.5213 92.9254 84.2995 93.1354 84.4877 92.6579H84.48Z" fill="#112870"/>
<path d="M87.6595 75.0246C87.8362 76.1395 88.4147 77.2429 89.5232 77.6666C90.5306 78.0506 91.6992 77.6666 92.1651 76.6694C92.3814 76.2022 91.6877 75.7926 91.4701 76.2624C91.104 77.0509 90.2131 77.2006 89.504 76.7616C88.8256 76.3418 88.5542 75.5571 88.4365 74.8096C88.3558 74.2976 87.5802 74.5165 87.6595 75.0246Z" fill="white"/>
<path d="M124.765 71.808C124.929 73.6036 124.467 75.4006 123.456 76.8938C122.446 78.3871 120.95 79.4846 119.222 80C119.098 81.2126 118.692 82.3793 118.036 83.4066C117.38 84.4338 116.492 85.293 115.444 85.9151C114.396 86.5372 113.216 86.9049 112 86.9887C110.784 87.0725 109.566 86.8701 108.442 86.3977C107.319 85.9254 106.321 85.1962 105.53 84.2687C104.74 83.3412 104.177 82.2412 103.888 81.057C103.6 79.8729 103.592 78.6375 103.867 77.4501C104.142 76.2626 104.692 75.1562 105.472 74.2195C105.683 73.966 105.91 73.7258 106.15 73.5002C105.873 73.3216 105.606 73.1258 105.353 72.9139C104.417 72.1326 103.677 71.1425 103.192 70.0232C102.708 68.9039 102.493 67.6866 102.565 66.4692C102.636 65.2517 102.992 64.0681 103.604 63.0132C104.217 61.9584 105.067 61.0618 106.089 60.3956C107.11 59.7293 108.274 59.312 109.486 59.177C110.698 59.042 111.925 59.1932 113.068 59.6185C114.211 60.0437 115.238 60.7311 116.067 61.6254C116.896 62.5198 117.504 63.5961 117.842 64.768C119.63 64.9641 121.296 65.7719 122.558 67.0546C123.819 68.3374 124.599 70.0165 124.765 71.808ZM115.768 77.1328L117.42 76.9779C118.603 76.8703 119.695 76.297 120.456 75.3841C121.217 74.4712 121.583 73.2935 121.476 72.1101C121.368 70.9267 120.795 69.8345 119.882 69.0738C118.969 68.3131 117.791 67.9461 116.608 68.0538L114.956 68.1971L114.816 66.5229C114.735 65.6415 114.394 64.804 113.838 64.1159C113.281 63.4279 112.533 62.9202 111.688 62.6568C110.843 62.3935 109.939 62.3864 109.09 62.6363C108.241 62.8863 107.485 63.3822 106.917 64.0613C106.35 64.7405 105.996 65.5726 105.901 66.4525C105.806 67.3325 105.973 68.2209 106.383 69.0056C106.792 69.7904 107.425 70.4364 108.201 70.862C108.977 71.2876 109.861 71.4738 110.743 71.3971L112.396 71.2525L112.54 72.9165V72.9318L112.696 74.583L111.045 74.7379C110.164 74.8208 109.327 75.1629 108.64 75.721C107.953 76.2791 107.447 77.0282 107.185 77.8737C106.923 78.7193 106.918 79.6234 107.17 80.472C107.421 81.3206 107.919 82.0756 108.599 82.6418C109.279 83.208 110.112 83.5599 110.992 83.6533C111.873 83.7466 112.761 83.5771 113.545 83.1662C114.329 82.7552 114.973 82.1213 115.397 81.3444C115.821 80.5674 116.006 79.6823 115.927 78.8006V78.7789L115.768 77.1328Z" fill="#75DDF9"/>
<path d="M113.152 74.8685C113.08 73.7024 113.057 72.4365 112.778 71.296C112.632 70.6969 112.26 70.4281 111.66 70.3769C110.508 70.2784 109.248 70.3616 108.116 70.0889C106.964 69.8112 106.284 68.7091 106.196 67.5789C106.109 66.4486 106.495 64.9894 107.291 64.1485C108.059 63.3305 109.53 62.8928 110.63 62.9811C113.174 63.1872 114.205 65.9635 114.426 68.128C114.478 68.64 115.283 68.64 115.231 68.128C115.039 66.2438 114.474 64.3097 112.927 63.0937C111.404 61.8982 109.452 61.9878 107.77 62.8262C106.065 63.6761 105.236 65.8585 105.4 67.6902C105.569 69.5641 106.875 70.8083 108.713 70.9798C109.353 71.0387 109.993 71.0733 110.625 71.1193C110.895 71.1385 111.631 71.0541 111.868 71.2205C112.193 71.4509 112.141 72.5005 112.182 72.8627C112.255 73.5309 112.31 74.199 112.349 74.8697C112.381 75.3817 113.187 75.3881 113.155 74.8697L113.152 74.8685Z" fill="#112870"/>
<path d="M104.988 74.4384C103.836 75.6634 103.556 77.5245 103.61 79.1488C103.654 80.8365 104.161 82.4797 105.075 83.8989C106.867 86.6099 110.364 88.0832 113.536 87.1475C115.255 86.6355 116.649 85.4221 117.782 84.0755C118.355 83.3933 118.879 82.6675 119.201 81.8266C119.318 81.5057 119.388 81.17 119.41 80.8294C119.424 80.681 119.402 80.471 119.511 80.3686C119.62 80.2662 119.909 80.2406 120.06 80.2112C121.544 79.8797 122.842 78.8288 123.731 77.623C124.818 76.1498 125.151 74.3373 125.198 72.5402C125.252 70.4742 124.71 68.4314 123.382 66.816C122.758 66.0561 121.976 65.4422 121.09 65.0176C120.203 64.593 119.234 64.3679 118.252 64.3584C117.733 64.3584 117.732 65.161 118.252 65.1635C121.866 65.1814 124.268 68.4198 124.396 71.8195C124.457 73.527 124.246 75.3574 123.31 76.8243C122.578 77.9763 121.352 79.0874 119.997 79.401C119.604 79.4918 119.087 79.529 118.828 79.8861C118.488 80.3456 118.641 81.0803 118.429 81.609C117.821 83.1347 116.443 84.5811 115.101 85.5014C112.522 87.273 108.97 86.8262 106.748 84.6656C105.526 83.4765 104.781 81.8688 104.516 80.1958C104.251 78.5229 104.348 76.297 105.562 75.0042C105.916 74.6202 105.348 74.057 104.992 74.4358L104.988 74.4384Z" fill="#112870"/>
<path d="M75.1283 56.1805C74.4752 54.1242 74.664 51.8929 75.6532 49.9756C76.6425 48.0583 78.3515 46.6114 80.4057 45.952L86.2861 44.073C87.3044 43.7476 88.3769 43.6261 89.4423 43.7152C90.5077 43.8044 91.5451 44.1025 92.4952 44.5925C93.4454 45.0826 94.2897 45.755 94.98 46.5713C95.6703 47.3877 96.193 48.332 96.5184 49.3504C96.8437 50.3688 96.9653 51.4413 96.8761 52.5067C96.787 53.572 96.4889 54.6094 95.9988 55.5596C95.5088 56.5097 94.8364 57.3541 94.02 58.0444C93.2037 58.7347 92.2593 59.2574 91.2409 59.5827L85.3606 61.4605C83.3035 62.115 81.0708 61.9267 79.1524 60.9368C77.2341 59.9469 75.7868 58.2363 75.1283 56.1805ZM91.4048 50.9799C91.1793 50.2806 90.6859 49.6993 90.0325 49.3634C89.3791 49.0275 88.6192 48.9643 87.9193 49.1879L82.039 51.0656C81.3475 51.2969 80.7749 51.7912 80.445 52.4415C80.1152 53.0918 80.0547 53.8458 80.2766 54.5404C80.4986 55.235 80.9851 55.8142 81.6309 56.1528C82.2767 56.4914 83.0298 56.562 83.7273 56.3495L89.6077 54.4704C89.9549 54.3593 90.2769 54.1809 90.5552 53.9454C90.8335 53.7098 91.0626 53.4217 91.2295 53.0975C91.3964 52.7734 91.4978 52.4195 91.5279 52.0561C91.5579 51.6928 91.5161 51.327 91.4048 50.9799Z" fill="#A89FFF"/>
<path d="M98.1197 48.6656C97.465 46.6089 97.653 44.3764 98.6424 42.4581C99.6318 40.5398 101.342 39.0923 103.397 38.4333L109.276 36.5555C110.298 36.2178 111.376 36.0859 112.449 36.1676C113.522 36.2492 114.568 36.5426 115.527 37.031C116.485 37.5194 117.338 38.193 118.034 39.0128C118.731 39.8326 119.259 40.7824 119.586 41.8073C119.914 42.8322 120.035 43.9119 119.942 44.9839C119.85 46.0558 119.546 47.0988 119.048 48.0526C118.55 49.0064 117.868 49.852 117.041 50.5405C116.214 51.2291 115.259 51.7469 114.231 52.064L108.352 53.9431C106.295 54.5973 104.063 54.4092 102.145 53.4198C100.227 52.4305 98.779 50.7208 98.1197 48.6656ZM114.396 43.465C114.171 42.7657 113.677 42.1844 113.024 41.8485C112.37 41.5126 111.611 41.4495 110.911 41.673L105.03 43.552C104.33 43.7759 103.747 44.2689 103.41 44.9225C103.073 45.5762 103.009 46.3369 103.233 47.0375C103.457 47.738 103.95 48.3208 104.604 48.6579C105.257 48.9949 106.018 49.0585 106.719 48.8346L112.598 46.9568C113.299 46.7319 113.882 46.2378 114.22 45.5831C114.557 44.9283 114.62 44.1665 114.396 43.465Z" fill="#A89FFF"/>
<path d="M50.9875 54.2567C51.0939 52.101 52.0511 50.0755 53.649 48.6247C55.247 47.1739 57.3551 46.4162 59.511 46.5178L65.6768 46.816C66.7502 46.8594 67.8043 47.1148 68.7786 47.5675C69.7528 48.0202 70.6277 48.6612 71.3531 49.4537C72.0784 50.2461 72.6397 51.1742 73.0046 52.1846C73.3696 53.195 73.5309 54.2676 73.4794 55.3406C73.4279 56.4136 73.1645 57.4658 72.7044 58.4366C72.2444 59.4073 71.5967 60.2774 70.7988 60.9967C70.0009 61.716 69.0686 62.2703 68.0555 62.6275C67.0424 62.9848 65.9686 63.1381 64.896 63.0784L58.7315 62.7815C56.5748 62.676 54.5481 61.7191 53.0962 60.1209C51.6443 58.5226 50.8859 56.4135 50.9875 54.2567ZM68.0538 55.081C68.0886 54.3466 67.8306 53.6283 67.3365 53.0839C66.8425 52.5394 66.1526 52.2131 65.4182 52.1767L59.2525 51.8797C58.8842 51.8541 58.5145 51.9024 58.1651 52.0215C57.8157 52.1407 57.4936 52.3284 57.2177 52.5737C56.9418 52.8189 56.7176 53.1168 56.5583 53.4498C56.399 53.7828 56.3078 54.1443 56.29 54.513C56.2722 54.8817 56.3282 55.2503 56.4546 55.5971C56.5811 55.9439 56.7755 56.262 57.0265 56.5327C57.2775 56.8034 57.5801 57.0213 57.9163 57.1736C58.2526 57.3259 58.6159 57.4095 58.985 57.4195L65.152 57.7178C65.8862 57.7519 66.604 57.4934 67.1479 56.9992C67.6919 56.5049 68.0176 55.8151 68.0538 55.081Z" fill="#A89FFF"/>
<path d="M65.28 55.0925C65.2181 54.3843 65.4393 53.6805 65.895 53.135C66.3508 52.5895 67.0041 52.2468 67.712 52.1818L80.3648 51.0579C81.0513 51.0355 81.7204 51.2767 82.2347 51.7321C82.749 52.1875 83.0694 52.8225 83.1301 53.5067C83.1909 54.1909 82.9874 54.8724 82.5615 55.4113C82.1355 55.9502 81.5194 56.3056 80.8397 56.4045L68.1869 57.5283C67.4787 57.5891 66.7754 57.3669 66.2306 56.9105C65.6859 56.454 65.3441 55.8003 65.28 55.0925Z" fill="#A89FFF"/>
<path d="M16.7501 42.9683C16.8686 42.2668 17.2603 41.6409 17.8395 41.2277C18.4187 40.8145 19.1381 40.6479 19.84 40.7642L32.3686 42.8595C33.0373 43.0114 33.6227 43.413 34.005 43.9823C34.3873 44.5516 34.5376 45.2455 34.425 45.9219C34.3125 46.5983 33.9457 47.2062 33.3997 47.6211C32.8538 48.0359 32.1698 48.2264 31.488 48.1536L18.9581 46.0583C18.2559 45.9407 17.629 45.5493 17.215 44.97C16.801 44.3907 16.6338 43.6708 16.7501 42.9683Z" fill="#A89FFF"/>
<path d="M89.6141 52.4058C89.3483 51.7459 89.3549 51.0076 89.6325 50.3525C89.9101 49.6975 90.436 49.1793 91.095 48.9114L102.871 44.1446C103.202 43.9884 103.561 43.9013 103.927 43.8887C104.292 43.876 104.657 43.9382 104.997 44.0713C105.338 44.2045 105.648 44.4058 105.908 44.6629C106.169 44.92 106.374 45.2276 106.511 45.5667C106.648 45.9058 106.715 46.2694 106.707 46.6352C106.698 47.0009 106.616 47.3612 106.463 47.6938C106.311 48.0265 106.093 48.3246 105.821 48.5698C105.55 48.815 105.231 49.0022 104.884 49.12L93.1085 53.8867C92.4486 54.1525 91.7103 54.1459 91.0553 53.8683C90.4003 53.5907 89.882 53.0648 89.6141 52.4058Z" fill="#A89FFF"/>
<path d="M36.0025 33.353C40.5158 33.8496 45.1123 33.7562 49.6781 33.6768C61.0923 33.4805 72.5086 33.3862 83.927 33.3939L84.0346 36.0397C84.0422 36.2189 84.0345 36.4237 83.8617 36.5517C83.7053 36.6414 83.5299 36.6932 83.3497 36.7027C79.392 37.2454 75.383 37.5987 71.3587 37.7485C61.4758 38.1235 51.5635 37.3146 41.6768 37.6269C39.7325 37.6883 37.7088 37.7843 35.9078 37.2634L35.8105 35.0989" fill="#E3E5E5"/>
<path d="M80.6656 34.176C80.5102 34.1794 80.3584 34.2231 80.2251 34.3029C80.0917 34.3827 79.9814 34.4958 79.905 34.6311C79.8286 34.7664 79.7887 34.9193 79.7892 35.0746C79.7897 35.23 79.8306 35.3826 79.9078 35.5174C79.992 35.6514 80.1049 35.7648 80.2385 35.8495C80.372 35.9342 80.5228 35.988 80.6798 36.007C80.8368 36.026 80.996 36.0098 81.1459 35.9594C81.2958 35.909 81.4326 35.8258 81.5462 35.7158C82.0122 35.2448 81.8355 34.3808 81.1494 34.2349C80.9946 34.2066 80.8348 34.227 80.692 34.2934C80.5493 34.3598 80.4307 34.4689 80.3526 34.6056C80.2745 34.7423 80.2407 34.8998 80.256 35.0565C80.2712 35.2132 80.3347 35.3613 80.4378 35.4803C80.5722 35.6518 80.8678 35.6211 81.0074 35.4803C81.1776 35.3114 81.1354 35.0835 81.0074 34.9107C80.832 34.6842 81.0624 35.0682 81.065 34.9926C81.0563 35.0022 81.0459 35.0099 81.0343 35.0154C81.0226 35.0209 81.01 35.0241 80.9971 35.0246C80.9758 35.0144 80.9758 35.0195 80.9971 35.04C81.0005 35.0689 81.0005 35.0981 80.9971 35.127C80.9662 35.1692 80.9205 35.198 80.8691 35.2077C80.663 35.2653 80.4698 34.9824 80.6618 34.9811C81.1738 34.9811 81.1814 34.1734 80.6618 34.176H80.6656Z" fill="#112870"/>
<path d="M91.6864 33.8624C93.5527 33.6545 95.433 33.6006 97.3082 33.7011C97.8202 33.7293 97.8202 32.9242 97.3082 32.896C95.433 32.7954 93.5527 32.8494 91.6864 33.0573C91.1744 33.1136 91.1744 33.9187 91.6864 33.8624Z" fill="#E3E5E5"/>
<path d="M92.5504 36.3354L97.5245 36.0397C98.0365 36.0102 98.0442 35.2038 97.5245 35.2346L92.5504 35.5302C92.0384 35.561 92.0384 36.3661 92.5504 36.3354Z" fill="#E3E5E5"/>
<path d="M93.312 39.3459L96.3392 39.1309C96.8512 39.0938 96.8512 38.2886 96.3392 38.3258L93.312 38.5408C92.8 38.5766 92.7936 39.3818 93.312 39.3459Z" fill="#E3E5E5"/>
<path d="M15.936 57.6358C16.299 63.9954 17.1333 70.3194 18.432 76.5555L27.5891 75.0426C27.796 75.0285 27.9943 74.9546 28.16 74.8301C28.2963 74.6799 28.3854 74.4929 28.416 74.2925C29.1238 71.3728 28.8154 68.3123 28.4774 65.3325C28.1421 62.3671 27.7816 59.4048 27.3958 56.4454L16.9907 56.7219" fill="#E3E5E5"/>
<path d="M72.8154 45.184C74.0864 44.8512 75.2883 43.7594 75.4458 42.3975C75.5981 41.0739 73.9021 40.6643 73.2122 41.7011C72.5799 42.6522 72.8499 44.6311 74.1287 44.9165C74.848 45.0778 75.5827 44.6298 76.1651 44.2624C76.9296 43.7762 77.622 43.185 78.2221 42.5063C78.292 42.4296 78.3296 42.329 78.3272 42.2253C78.3248 42.1216 78.2825 42.0229 78.2092 41.9495C78.1359 41.8762 78.0371 41.834 77.9334 41.8316C77.8298 41.8292 77.7291 41.8668 77.6525 41.9367C76.7693 42.6688 77.2928 44.0653 78.3463 44.2701C79.7427 44.5402 80.5325 43.1795 80.6631 41.9994L80.0576 42.3475C82.0826 43.8835 84.5632 42.4231 86.8007 42.8019C87.3127 42.8877 87.5251 42.112 87.0144 42.025C84.9075 41.6691 82.3258 43.0656 80.4634 41.6525C80.192 41.4464 79.8874 41.7357 79.8579 41.9994C79.7914 42.601 79.5251 43.3255 78.8583 43.4675C78.272 43.5955 77.6653 42.9671 78.2183 42.5063L77.6487 41.9367C77.0483 42.6203 76.3473 43.2086 75.5699 43.6813C75.1731 43.9181 74.5088 44.3751 74.0621 44.0103C73.7703 43.7722 73.7037 43.2576 73.6986 42.9069C73.6935 42.5562 73.8151 41.8573 74.3245 41.9059C74.8954 41.961 74.5523 42.7226 74.3949 43.0195C74.2088 43.3626 73.9533 43.6632 73.6448 43.9022C73.3363 44.1413 72.9815 44.3137 72.6029 44.4083C72.1024 44.5363 72.3149 45.3159 72.8179 45.184H72.8154Z" fill="#E3E5E5"/>
<path d="M70.8058 66.3885C72.8738 66.5523 74.9495 66.5972 77.0227 66.5229C77.5347 66.5037 77.5424 65.6986 77.0227 65.7178C74.9497 65.7942 72.8739 65.7514 70.8058 65.5898C70.2938 65.5501 70.2938 66.3578 70.8058 66.3949V66.3885Z" fill="#E3E5E5"/>
<path d="M104.44 56.0819C102.444 56.2381 100.453 56.4514 98.4691 56.7219C97.9187 56.7975 96.9331 56.7411 96.6605 57.3619C96.5222 57.6819 96.6605 58.0506 96.7322 58.3655L97.0995 59.9015C97.117 59.969 97.1522 60.0306 97.2015 60.0798C97.2508 60.1291 97.3124 60.1643 97.3799 60.1818C99.2305 60.5151 101.122 60.5613 102.986 60.3187C103.638 60.2317 104.54 60.1907 104.997 59.6365C105.145 59.4565 105.221 59.229 105.213 58.9965C105.207 58.6944 104.887 58.2963 104.996 58.0186C105.183 57.536 104.404 57.3261 104.219 57.8048C104.06 58.2131 104.539 58.9261 104.278 59.2128C104.111 59.3933 103.588 59.4227 103.382 59.4573C102.972 59.5256 102.56 59.5776 102.147 59.6135C100.627 59.7435 99.097 59.6755 97.5949 59.4112L97.8765 59.6928L97.6205 58.6304C97.5744 58.4397 97.3197 57.8432 97.4925 57.6755C97.6653 57.5079 98.5702 57.5168 98.7725 57.4912C99.1411 57.4426 99.5102 57.3956 99.8797 57.3504C101.398 57.1644 102.919 57.0129 104.444 56.896C104.956 56.8563 104.956 56.0499 104.444 56.0909L104.44 56.0819Z" fill="#E3E5E5"/>
<path d="M98.0634 62.9031L100.133 63.0861C100.645 63.1322 100.645 62.3271 100.133 62.281L98.0634 62.0979C97.5514 62.0519 97.5514 62.857 98.0634 62.9031Z" fill="#E3E5E5"/>
<path d="M70.3258 63.8541L75.744 64.0474C76.256 64.0666 76.256 63.2614 75.744 63.2422L70.3258 63.049C69.8138 63.0298 69.8138 63.8349 70.3258 63.8541Z" fill="#E3E5E5"/>
<path d="M30.2643 59.5738C32.2111 59.1047 34.2105 58.8896 36.2125 58.9338C36.7245 58.9453 36.7245 58.1402 36.2125 58.1286C34.138 58.0869 32.0669 58.3136 30.0506 58.8032C29.5475 58.9248 29.76 59.6992 30.2643 59.5789V59.5738Z" fill="#E3E5E5"/>
<path d="M30.5242 62.4346C31.1834 62.605 31.8671 62.6609 32.5453 62.5997C33.0573 62.5523 33.0573 61.7459 32.5453 61.7946C31.9394 61.8536 31.3279 61.8073 30.7379 61.6576C30.2362 61.5296 30.0211 62.3066 30.5242 62.4346Z" fill="#E3E5E5"/>
<path d="M30.9517 66.432H32.384C32.9024 66.432 32.9037 65.6269 32.384 65.6269H30.9504C30.432 65.6269 30.4307 66.432 30.9504 66.432H30.9517Z" fill="#E3E5E5"/>
<path d="M17.8522 60.649C20.4198 64.0683 22.8634 67.5759 25.1827 71.1719C25.4618 71.6058 26.1594 71.2026 25.8778 70.7648C23.5593 67.1714 21.1157 63.6642 18.5472 60.2432C18.24 59.8336 17.5398 60.2343 17.8522 60.649Z" fill="white"/>
<path d="M20.5901 70.6304C21.7904 67.4593 23.2126 64.3767 24.8461 61.4054C25.1021 60.951 24.4019 60.544 24.151 60.9984C22.4857 64.0319 21.0365 67.1791 19.8144 70.4166C19.6313 70.9018 20.4083 71.1117 20.5901 70.6304Z" fill="white"/>
<path d="M66.345 57.856C70.7823 57.5062 75.2094 57.0633 79.6262 56.5274C80.9894 56.3623 82.889 56.2995 83.5699 54.8634C84.3571 53.1994 82.9184 51.7325 81.7421 50.7674C81.344 50.4423 80.7718 51.008 81.1725 51.337C81.7613 51.817 82.4051 52.3188 82.7494 53.0138C83.1603 53.8407 82.985 54.7418 82.153 55.1898C81.5437 55.5162 80.8038 55.5802 80.1306 55.6634C79.2047 55.7777 78.2788 55.8878 77.353 55.9936C73.6905 56.4118 70.0211 56.765 66.345 57.0535C65.833 57.0932 65.833 57.8995 66.345 57.8586V57.856Z" fill="#112870"/>
<path d="M90.2989 49.2122C89.899 49.3603 89.5558 49.6302 89.3176 49.9839C89.0794 50.3376 88.9584 50.7572 88.9715 51.1834C88.9818 52.0909 89.5846 52.8691 90.3603 53.2903C91.447 53.8803 92.7002 53.7805 93.8675 53.5232C95.1992 53.2164 96.51 52.8252 97.792 52.352C100.37 51.4126 102.896 50.3359 105.359 49.1264C106.3 48.6707 107.023 47.9834 106.889 46.8531C106.767 45.8547 106.15 44.8051 105.377 44.1651C104.315 43.2858 103.058 43.4727 101.85 43.9245C100.273 44.5159 98.7097 45.1482 97.1405 45.7587C96.663 45.9456 96.8704 46.7239 97.3542 46.5357L100.433 45.3363C101.353 44.9779 102.321 44.4723 103.309 44.3469C104.362 44.2189 105.121 44.8525 105.623 45.7152C105.853 46.1107 106.065 46.5549 106.094 47.017C106.136 47.6711 105.728 48.0333 105.198 48.3136C103.406 49.2608 101.478 50.0442 99.6006 50.8058C97.7229 51.5674 95.7696 52.2663 93.7792 52.7258C92.6758 52.9818 91.3574 53.1341 90.4115 52.3648C89.6934 51.7799 89.4618 50.3847 90.519 49.9943C91.0003 49.8163 90.793 49.0381 90.3053 49.2186L90.2989 49.2122Z" fill="#112870"/>
<path d="M48.256 54.4704C50.394 55.2826 52.6176 55.8482 54.8838 56.1562C56.3136 56.3443 58.1389 56.2957 58.9683 54.8928C59.8259 53.4451 59.3459 51.465 57.8714 50.6688C57.0726 50.2362 56.1498 50.0531 55.2819 49.8202L51.6826 48.8538C51.1821 48.7194 50.9683 49.4938 51.4688 49.6307C53.1878 50.0915 54.9414 50.4883 56.6374 51.0298C57.376 51.2653 58.1645 51.625 58.4371 52.4134C58.7098 53.2019 58.6035 54.2464 57.9955 54.839C56.9536 55.8541 54.9965 55.3984 53.7472 55.1693C51.9481 54.8351 50.1821 54.3425 48.4698 53.6973C47.9834 53.5155 47.7734 54.2938 48.256 54.4742V54.4704Z" fill="#112870"/>
<path d="M40.8512 49.3517C40.6285 50.8634 41.6397 52.3904 43.191 52.6208C43.703 52.6963 43.9168 51.9206 43.4048 51.8451C42.3322 51.6851 41.463 50.679 41.6282 49.5654C41.7024 49.0534 40.9267 48.8397 40.8512 49.3517Z" fill="#112870"/>
<path d="M17.9021 40.9191C16.9818 41.2455 16.4531 42.0711 16.3802 43.0349C16.2982 44.1203 16.8806 45.0688 17.7139 45.7229C19.9949 47.4995 23.4112 47.5047 26.1542 47.7863C27.8131 47.9569 29.4716 48.1276 31.1296 48.2983C32.2701 48.4135 33.591 48.4723 34.3706 47.4675C35.0797 46.5536 34.9888 45.2775 34.4384 44.3136C33.7984 43.2026 32.6797 42.5216 31.4778 42.1722C29.9072 41.7165 28.1984 41.6666 26.5792 41.4951L20.8819 40.8883C20.3699 40.8333 20.3699 41.6397 20.8819 41.6935L28.5619 42.5101C30.5613 42.7239 33.7946 43.1027 34.0659 45.6819C34.1261 46.2643 33.9379 46.912 33.4413 47.2602C32.9792 47.5802 32.3674 47.5815 31.8298 47.5546C30.601 47.4919 29.3696 47.3127 28.1459 47.1872C25.6525 46.9312 23.0541 46.8429 20.6259 46.1811C19.4944 45.8727 18.1939 45.4003 17.5245 44.3687C16.9818 43.5354 17.0394 42.0826 18.1171 41.6999C18.6022 41.5283 18.3923 40.7501 17.9034 40.9242L17.9021 40.9191Z" fill="#112870"/>
<path d="M26.1235 49.2224C26.6867 51.7043 28.6835 53.513 30.9107 54.5651C33.6525 55.8592 36.7539 56.4378 39.6698 57.2147C40.1702 57.3427 40.384 56.5747 39.8835 56.4378C37.1763 55.7158 34.3155 55.1693 31.7338 54.0582C29.5194 53.1059 27.456 51.4624 26.9005 49.0086C26.7853 48.503 26.0045 48.7168 26.1235 49.2224Z" fill="#112870"/>
<path d="M67.5635 47.616C69.5757 48.3533 71.6595 49.481 72.4096 51.6275C72.5799 52.1127 73.3581 51.904 73.1853 51.4125C72.3315 48.9805 70.08 47.6839 67.7773 46.8391C67.2896 46.6611 67.0797 47.4381 67.5635 47.616Z" fill="#112870"/>
<path d="M80.521 46.0135C83.2986 45.9418 85.769 44.4096 88.521 44.256C91.0643 44.1139 93.536 45.2595 95.1437 47.2192C95.4727 47.6199 96.0397 47.0477 95.7133 46.6496C94.9062 45.6731 93.8989 44.8812 92.7594 44.3274C91.62 43.7736 90.375 43.4708 89.1085 43.4394C86.1248 43.3818 83.4765 45.1315 80.521 45.2083C80.009 45.2224 80.0013 46.0275 80.521 46.0135Z" fill="#112870"/>
<path d="M113.937 36.8128C116.753 38.2976 119.057 40.8986 119.336 44.1805C119.592 47.2269 117.818 50.2643 114.761 51.0272C114.258 51.1552 114.472 51.9296 114.975 51.8042C118.28 50.9786 120.34 47.7197 120.155 44.3955C119.951 40.7437 117.486 37.7728 114.342 36.1178C113.884 35.8771 113.477 36.5709 113.937 36.8128Z" fill="#112870"/>
<path d="M2.80064 44.8077C2.88256 49.3594 7.31904 51.8042 11.2986 52.4442C15.5533 53.129 20.8525 53.1187 23.8502 49.5002C24.1779 49.1047 23.6122 48.5312 23.2806 48.9306C20.5158 52.2714 15.6698 52.2944 11.7286 51.7056C8.064 51.1552 3.68256 49.088 3.60576 44.8077C3.5968 44.2893 2.79168 44.288 2.80064 44.8077Z" fill="#112870"/>
<path d="M66.633 86.7559C66.3432 89.4961 65.9129 92.2197 65.344 94.9159C65.1008 96.0679 64.9446 97.4464 63.6006 97.7626C62.3795 98.0493 60.9946 97.9763 59.7453 98.0083C54.3307 98.1433 48.9173 97.6966 43.5981 96.6759C42.1619 96.4011 40.7339 96.0836 39.3139 95.7235C38.6048 95.5443 37.8982 95.3549 37.1942 95.1552C36.6234 94.9927 35.6019 94.857 35.3446 94.2247C35.1526 93.7511 34.3731 93.9584 34.569 94.4384C35.0042 95.511 36.2112 95.7184 37.2147 95.9974C38.6654 96.4028 40.1246 96.7654 41.5923 97.0854C44.4886 97.7139 47.4187 98.1746 50.368 98.4653C53.4029 98.7658 56.4531 98.8829 59.5021 98.816C60.8307 98.7879 62.2208 98.816 63.5354 98.592C64.6989 98.3962 65.4221 97.696 65.7766 96.5824C66.272 95.0323 66.4934 93.3414 66.761 91.7402C67.0374 90.0847 67.2631 88.4207 67.4381 86.7482C67.4931 86.2362 66.6867 86.2362 66.633 86.7482V86.7559Z" fill="#112870"/>
<path d="M60.7667 65.3786C62.6594 65.7141 64.3488 66.7691 65.481 68.3226C65.783 68.7386 66.4806 68.3366 66.176 67.9168C64.9368 66.1841 63.0748 64.9987 60.9805 64.6093C60.4685 64.5158 60.2573 65.2928 60.7667 65.385V65.3786Z" fill="#112870"/>
<path d="M62.3283 67.9898C62.8403 67.9898 62.8467 67.1847 62.3283 67.1847C61.8099 67.1847 61.8086 67.9898 62.3283 67.9898Z" fill="#112870"/>
<path d="M52.96 95.9053C56.1382 96.467 59.3663 96.6965 62.592 96.5901C63.104 96.5735 63.1104 95.7671 62.592 95.785C59.4383 95.8935 56.282 95.6739 53.1737 95.1296C52.6617 95.04 52.4493 95.8157 52.96 95.9053Z" fill="#112870"/>
<path d="M47.8797 96.0627C48.3981 96.0627 48.3981 95.2576 47.8797 95.2576C47.3613 95.2576 47.36 96.0627 47.8797 96.0627Z" fill="#112870"/>
</svg>
